solid CATIA STL
  facet normal  -0.000000e+000  0.000000e+000  1.000000e+000
    outer loop
      vertex -6.972243e+000  8.500000e-001  6.000000e+000
      vertex -8.442356e+000  5.852709e-001  6.000000e+000
      vertex -7.142074e+000  4.399924e-001  6.000000e+000
    endloop
  endfacet
  facet normal  0.000000e+000  -0.000000e+000  1.000000e+000
    outer loop
      vertex -5.500000e+000  1.700000e+000  6.000000e+000
      vertex -5.060008e+000  1.642074e+000  6.000000e+000
      vertex  5.060008e+000  1.642074e+000  6.000000e+000
    endloop
  endfacet
  facet normal  0.000000e+000  -0.000000e+000  1.000000e+000
    outer loop
      vertex -5.500000e+000  1.700000e+000  6.000000e+000
      vertex  5.060008e+000  1.642074e+000  6.000000e+000
      vertex  5.500000e+000  1.700000e+000  6.000000e+000
    endloop
  endfacet
  facet normal  0.000000e+000  -0.000000e+000  1.000000e+000
    outer loop
      vertex -5.500000e+000  1.700000e+000  6.000000e+000
      vertex  5.500000e+000  1.700000e+000  6.000000e+000
      vertex  5.500000e+000  3.000000e+000  6.000000e+000
    endloop
  endfacet
  facet normal  0.000000e+000  0.000000e+000  1.000000e+000
    outer loop
      vertex -5.500000e+000  1.700000e+000  6.000000e+000
      vertex  5.500000e+000  3.000000e+000  6.000000e+000
      vertex -5.500000e+000  3.000000e+000  6.000000e+000
    endloop
  endfacet
  facet normal  0.000000e+000  0.000000e+000  1.000000e+000
    outer loop
      vertex -5.500000e+000  1.700000e+000  6.000000e+000
      vertex -5.500000e+000  3.000000e+000  6.000000e+000
      vertex -6.085271e+000  2.942356e+000  6.000000e+000
    endloop
  endfacet
  facet normal  0.000000e+000  0.000000e+000  1.000000e+000
    outer loop
      vertex -5.500000e+000  1.700000e+000  6.000000e+000
      vertex -6.085271e+000  2.942356e+000  6.000000e+000
      vertex -6.648050e+000  2.771639e+000  6.000000e+000
    endloop
  endfacet
  facet normal  0.000000e+000  0.000000e+000  1.000000e+000
    outer loop
      vertex -5.500000e+000  1.700000e+000  6.000000e+000
      vertex -6.648050e+000  2.771639e+000  6.000000e+000
      vertex -7.166711e+000  2.494409e+000  6.000000e+000
    endloop
  endfacet
  facet normal  0.000000e+000  0.000000e+000  1.000000e+000
    outer loop
      vertex -5.500000e+000  1.700000e+000  6.000000e+000
      vertex -7.166711e+000  2.494409e+000  6.000000e+000
      vertex -7.621320e+000  2.121320e+000  6.000000e+000
    endloop
  endfacet
  facet normal  0.000000e+000  0.000000e+000  1.000000e+000
    outer loop
      vertex -5.500000e+000  1.700000e+000  6.000000e+000
      vertex -7.621320e+000  2.121320e+000  6.000000e+000
      vertex -7.994409e+000  1.666711e+000  6.000000e+000
    endloop
  endfacet
  facet normal  -0.000000e+000  0.000000e+000  1.000000e+000
    outer loop
      vertex -5.500000e+000  1.700000e+000  6.000000e+000
      vertex -7.994409e+000  1.666711e+000  6.000000e+000
      vertex -5.939992e+000  1.642074e+000  6.000000e+000
    endloop
  endfacet
  facet normal  0.000000e+000  0.000000e+000  1.000000e+000
    outer loop
      vertex -8.271639e+000  1.148050e+000  6.000000e+000
      vertex -8.442356e+000  5.852709e-001  6.000000e+000
      vertex -6.972243e+000  8.500000e-001  6.000000e+000
    endloop
  endfacet
  facet normal  0.000000e+000  -0.000000e+000  1.000000e+000
    outer loop
      vertex -8.271639e+000  1.148050e+000  6.000000e+000
      vertex -6.972243e+000  8.500000e-001  6.000000e+000
      vertex -6.702082e+000  1.202082e+000  6.000000e+000
    endloop
  endfacet
  facet normal  0.000000e+000  -0.000000e+000  1.000000e+000
    outer loop
      vertex -8.271639e+000  1.148050e+000  6.000000e+000
      vertex -6.702082e+000  1.202082e+000  6.000000e+000
      vertex -6.350000e+000  1.472243e+000  6.000000e+000
    endloop
  endfacet
  facet normal  0.000000e+000  -0.000000e+000  1.000000e+000
    outer loop
      vertex -8.271639e+000  1.148050e+000  6.000000e+000
      vertex -6.350000e+000  1.472243e+000  6.000000e+000
      vertex -5.939992e+000  1.642074e+000  6.000000e+000
    endloop
  endfacet
  facet normal  0.000000e+000  0.000000e+000  1.000000e+000
    outer loop
      vertex -8.271639e+000  1.148050e+000  6.000000e+000
      vertex -5.939992e+000  1.642074e+000  6.000000e+000
      vertex -7.994409e+000  1.666711e+000  6.000000e+000
    endloop
  endfacet
  facet normal  0.000000e+000  -0.000000e+000  1.000000e+000
    outer loop
      vertex -7.994409e+000 -1.666711e+000  6.000000e+000
      vertex -7.621320e+000 -2.121320e+000  6.000000e+000
      vertex -5.500000e+000 -1.700000e+000  6.000000e+000
    endloop
  endfacet
  facet normal  0.000000e+000  0.000000e+000  1.000000e+000
    outer loop
      vertex -7.994409e+000 -1.666711e+000  6.000000e+000
      vertex -5.500000e+000 -1.700000e+000  6.000000e+000
      vertex -5.939992e+000 -1.642074e+000  6.000000e+000
    endloop
  endfacet
  facet normal  0.000000e+000  0.000000e+000  9.999999e-001
    outer loop
      vertex -7.994409e+000 -1.666711e+000  6.000000e+000
      vertex -5.939992e+000 -1.642074e+000  6.000000e+000
      vertex -6.350000e+000 -1.472243e+000  6.000000e+000
    endloop
  endfacet
  facet normal  0.000000e+000  0.000000e+000  1.000000e+000
    outer loop
      vertex -7.994409e+000 -1.666711e+000  6.000000e+000
      vertex -6.350000e+000 -1.472243e+000  6.000000e+000
      vertex -6.702082e+000 -1.202082e+000  6.000000e+000
    endloop
  endfacet
  facet normal  0.000000e+000  0.000000e+000  1.000000e+000
    outer loop
      vertex -7.994409e+000 -1.666711e+000  6.000000e+000
      vertex -6.702082e+000 -1.202082e+000  6.000000e+000
      vertex -8.271639e+000 -1.148050e+000  6.000000e+000
    endloop
  endfacet
  facet normal  0.000000e+000  -0.000000e+000  1.000000e+000
    outer loop
      vertex -5.500000e+000 -3.000000e+000  6.000000e+000
      vertex  5.500000e+000 -3.000000e+000  6.000000e+000
      vertex  5.500000e+000 -1.700000e+000  6.000000e+000
    endloop
  endfacet
  facet normal  0.000000e+000  0.000000e+000  1.000000e+000
    outer loop
      vertex -5.500000e+000 -3.000000e+000  6.000000e+000
      vertex  5.500000e+000 -1.700000e+000  6.000000e+000
      vertex -5.500000e+000 -1.700000e+000  6.000000e+000
    endloop
  endfacet
  facet normal  0.000000e+000  0.000000e+000  1.000000e+000
    outer loop
      vertex -5.500000e+000 -3.000000e+000  6.000000e+000
      vertex -5.500000e+000 -1.700000e+000  6.000000e+000
      vertex -7.621320e+000 -2.121320e+000  6.000000e+000
    endloop
  endfacet
  facet normal  0.000000e+000  0.000000e+000  9.999999e-001
    outer loop
      vertex -5.500000e+000 -3.000000e+000  6.000000e+000
      vertex -7.621320e+000 -2.121320e+000  6.000000e+000
      vertex -7.166711e+000 -2.494409e+000  6.000000e+000
    endloop
  endfacet
  facet normal  0.000000e+000  0.000000e+000  9.999999e-001
    outer loop
      vertex -5.500000e+000 -3.000000e+000  6.000000e+000
      vertex -7.166711e+000 -2.494409e+000  6.000000e+000
      vertex -6.648050e+000 -2.771639e+000  6.000000e+000
    endloop
  endfacet
  facet normal  0.000000e+000  0.000000e+000  1.000000e+000
    outer loop
      vertex -5.500000e+000 -3.000000e+000  6.000000e+000
      vertex -6.648050e+000 -2.771639e+000  6.000000e+000
      vertex -6.085271e+000 -2.942356e+000  6.000000e+000
    endloop
  endfacet
  facet normal  0.000000e+000  -0.000000e+000  1.000000e+000
    outer loop
      vertex  5.500000e+000  1.700000e+000  6.000000e+000
      vertex  5.939992e+000  1.642074e+000  6.000000e+000
      vertex  7.994409e+000  1.666711e+000  6.000000e+000
    endloop
  endfacet
  facet normal  0.000000e+000  0.000000e+000  1.000000e+000
    outer loop
      vertex  5.500000e+000  1.700000e+000  6.000000e+000
      vertex  7.994409e+000  1.666711e+000  6.000000e+000
      vertex  7.621320e+000  2.121320e+000  6.000000e+000
    endloop
  endfacet
  facet normal  0.000000e+000  0.000000e+000  1.000000e+000
    outer loop
      vertex  5.500000e+000  1.700000e+000  6.000000e+000
      vertex  7.621320e+000  2.121320e+000  6.000000e+000
      vertex  7.166711e+000  2.494409e+000  6.000000e+000
    endloop
  endfacet
  facet normal  0.000000e+000  0.000000e+000  9.999999e-001
    outer loop
      vertex  5.500000e+000  1.700000e+000  6.000000e+000
      vertex  7.166711e+000  2.494409e+000  6.000000e+000
      vertex  6.648050e+000  2.771639e+000  6.000000e+000
    endloop
  endfacet
  facet normal  0.000000e+000  0.000000e+000  1.000000e+000
    outer loop
      vertex  5.500000e+000  1.700000e+000  6.000000e+000
      vertex  6.648050e+000  2.771639e+000  6.000000e+000
      vertex  6.085271e+000  2.942356e+000  6.000000e+000
    endloop
  endfacet
  facet normal  0.000000e+000  0.000000e+000  1.000000e+000
    outer loop
      vertex  5.500000e+000  1.700000e+000  6.000000e+000
      vertex  6.085271e+000  2.942356e+000  6.000000e+000
      vertex  5.500000e+000  3.000000e+000  6.000000e+000
    endloop
  endfacet
  facet normal  0.000000e+000  -0.000000e+000  1.000000e+000
    outer loop
      vertex  5.500000e+000 -3.000000e+000  6.000000e+000
      vertex  6.085271e+000 -2.942356e+000  6.000000e+000
      vertex  6.648050e+000 -2.771639e+000  6.000000e+000
    endloop
  endfacet
  facet normal  0.000000e+000  -0.000000e+000  1.000000e+000
    outer loop
      vertex  5.500000e+000 -3.000000e+000  6.000000e+000
      vertex  6.648050e+000 -2.771639e+000  6.000000e+000
      vertex  7.166711e+000 -2.494409e+000  6.000000e+000
    endloop
  endfacet
  facet normal  0.000000e+000  -0.000000e+000  9.999999e-001
    outer loop
      vertex  5.500000e+000 -3.000000e+000  6.000000e+000
      vertex  7.166711e+000 -2.494409e+000  6.000000e+000
      vertex  7.621320e+000 -2.121320e+000  6.000000e+000
    endloop
  endfacet
  facet normal  0.000000e+000  0.000000e+000  1.000000e+000
    outer loop
      vertex  5.500000e+000 -3.000000e+000  6.000000e+000
      vertex  7.621320e+000 -2.121320e+000  6.000000e+000
      vertex  5.500000e+000 -1.700000e+000  6.000000e+000
    endloop
  endfacet
  facet normal  0.000000e+000  0.000000e+000  1.000000e+000
    outer loop
      vertex -7.142074e+000  4.399924e-001  6.000000e+000
      vertex -8.442356e+000  5.852709e-001  6.000000e+000
      vertex -7.200000e+000 -8.673595e-015  6.000000e+000
    endloop
  endfacet
  facet normal  0.000000e+000  0.000000e+000  1.000000e+000
    outer loop
      vertex -7.200000e+000 -8.673595e-015  6.000000e+000
      vertex -8.442356e+000  5.852709e-001  6.000000e+000
      vertex -8.500000e+000 -1.029075e-014  6.000000e+000
    endloop
  endfacet
  facet normal  -0.000000e+000  0.000000e+000  1.000000e+000
    outer loop
      vertex -7.200000e+000 -8.673595e-015  6.000000e+000
      vertex -8.500000e+000 -1.029075e-014  6.000000e+000
      vertex -7.142074e+000 -4.399924e-001  6.000000e+000
    endloop
  endfacet
  facet normal  0.000000e+000  0.000000e+000  1.000000e+000
    outer loop
      vertex -7.142074e+000 -4.399924e-001  6.000000e+000
      vertex -8.500000e+000 -1.029075e-014  6.000000e+000
      vertex -8.442356e+000 -5.852709e-001  6.000000e+000
    endloop
  endfacet
  facet normal  -0.000000e+000  0.000000e+000  1.000000e+000
    outer loop
      vertex -7.142074e+000 -4.399924e-001  6.000000e+000
      vertex -8.442356e+000 -5.852709e-001  6.000000e+000
      vertex -6.972243e+000 -8.500000e-001  6.000000e+000
    endloop
  endfacet
  facet normal  0.000000e+000  0.000000e+000  1.000000e+000
    outer loop
      vertex -6.972243e+000 -8.500000e-001  6.000000e+000
      vertex -8.442356e+000 -5.852709e-001  6.000000e+000
      vertex -8.271639e+000 -1.148050e+000  6.000000e+000
    endloop
  endfacet
  facet normal  -0.000000e+000  0.000000e+000  1.000000e+000
    outer loop
      vertex -6.972243e+000 -8.500000e-001  6.000000e+000
      vertex -8.271639e+000 -1.148050e+000  6.000000e+000
      vertex -6.702082e+000 -1.202082e+000  6.000000e+000
    endloop
  endfacet
  facet normal  -0.000000e+000  0.000000e+000  1.000000e+000
    outer loop
      vertex  5.060008e+000  1.642074e+000  6.000000e+000
      vertex -5.060008e+000  1.642074e+000  6.000000e+000
      vertex  4.650000e+000  1.472243e+000  6.000000e+000
    endloop
  endfacet
  facet normal  0.000000e+000  0.000000e+000  1.000000e+000
    outer loop
      vertex  4.650000e+000  1.472243e+000  6.000000e+000
      vertex -5.060008e+000  1.642074e+000  6.000000e+000
      vertex -4.650000e+000  1.472243e+000  6.000000e+000
    endloop
  endfacet
  facet normal  -0.000000e+000  0.000000e+000  1.000000e+000
    outer loop
      vertex  4.650000e+000  1.472243e+000  6.000000e+000
      vertex -4.650000e+000  1.472243e+000  6.000000e+000
      vertex  4.297918e+000  1.202082e+000  6.000000e+000
    endloop
  endfacet
  facet normal  0.000000e+000  0.000000e+000  1.000000e+000
    outer loop
      vertex  4.297918e+000  1.202082e+000  6.000000e+000
      vertex -4.650000e+000  1.472243e+000  6.000000e+000
      vertex -4.297918e+000  1.202082e+000  6.000000e+000
    endloop
  endfacet
  facet normal  -0.000000e+000  0.000000e+000  9.999999e-001
    outer loop
      vertex  4.297918e+000  1.202082e+000  6.000000e+000
      vertex -4.297918e+000  1.202082e+000  6.000000e+000
      vertex  4.027757e+000  8.500000e-001  6.000000e+000
    endloop
  endfacet
  facet normal  0.000000e+000  0.000000e+000  1.000000e+000
    outer loop
      vertex  4.027757e+000  8.500000e-001  6.000000e+000
      vertex -4.297918e+000  1.202082e+000  6.000000e+000
      vertex -4.027757e+000  8.500000e-001  6.000000e+000
    endloop
  endfacet
  facet normal  -0.000000e+000  0.000000e+000  1.000000e+000
    outer loop
      vertex  4.027757e+000  8.500000e-001  6.000000e+000
      vertex -4.027757e+000  8.500000e-001  6.000000e+000
      vertex  3.857926e+000  4.399924e-001  6.000000e+000
    endloop
  endfacet
  facet normal  0.000000e+000  0.000000e+000  1.000000e+000
    outer loop
      vertex  3.857926e+000  4.399924e-001  6.000000e+000
      vertex -4.027757e+000  8.500000e-001  6.000000e+000
      vertex -3.857926e+000  4.399924e-001  6.000000e+000
    endloop
  endfacet
  facet normal  -0.000000e+000  0.000000e+000  1.000000e+000
    outer loop
      vertex  3.857926e+000  4.399924e-001  6.000000e+000
      vertex -3.857926e+000  4.399924e-001  6.000000e+000
      vertex  3.800000e+000 -8.881784e-015  6.000000e+000
    endloop
  endfacet
  facet normal  0.000000e+000  0.000000e+000  9.999999e-001
    outer loop
      vertex  3.800000e+000 -8.881784e-015  6.000000e+000
      vertex -3.857926e+000  4.399924e-001  6.000000e+000
      vertex -3.800000e+000 -8.881784e-015  6.000000e+000
    endloop
  endfacet
  facet normal  -0.000000e+000  0.000000e+000  9.999999e-001
    outer loop
      vertex  3.800000e+000 -8.881784e-015  6.000000e+000
      vertex -3.800000e+000 -8.881784e-015  6.000000e+000
      vertex  3.857926e+000 -4.399924e-001  6.000000e+000
    endloop
  endfacet
  facet normal  0.000000e+000  0.000000e+000  1.000000e+000
    outer loop
      vertex  3.857926e+000 -4.399924e-001  6.000000e+000
      vertex -3.800000e+000 -8.881784e-015  6.000000e+000
      vertex -3.857926e+000 -4.399924e-001  6.000000e+000
    endloop
  endfacet
  facet normal  -0.000000e+000  0.000000e+000  1.000000e+000
    outer loop
      vertex  3.857926e+000 -4.399924e-001  6.000000e+000
      vertex -3.857926e+000 -4.399924e-001  6.000000e+000
      vertex  4.027757e+000 -8.500000e-001  6.000000e+000
    endloop
  endfacet
  facet normal  0.000000e+000  0.000000e+000  1.000000e+000
    outer loop
      vertex  4.027757e+000 -8.500000e-001  6.000000e+000
      vertex -3.857926e+000 -4.399924e-001  6.000000e+000
      vertex -4.027757e+000 -8.500000e-001  6.000000e+000
    endloop
  endfacet
  facet normal  -0.000000e+000  0.000000e+000  1.000000e+000
    outer loop
      vertex  4.027757e+000 -8.500000e-001  6.000000e+000
      vertex -4.027757e+000 -8.500000e-001  6.000000e+000
      vertex  4.297918e+000 -1.202082e+000  6.000000e+000
    endloop
  endfacet
  facet normal  0.000000e+000  0.000000e+000  9.999999e-001
    outer loop
      vertex  4.297918e+000 -1.202082e+000  6.000000e+000
      vertex -4.027757e+000 -8.500000e-001  6.000000e+000
      vertex -4.297918e+000 -1.202082e+000  6.000000e+000
    endloop
  endfacet
  facet normal  -0.000000e+000  0.000000e+000  1.000000e+000
    outer loop
      vertex  4.297918e+000 -1.202082e+000  6.000000e+000
      vertex -4.297918e+000 -1.202082e+000  6.000000e+000
      vertex  4.650000e+000 -1.472243e+000  6.000000e+000
    endloop
  endfacet
  facet normal  0.000000e+000  0.000000e+000  1.000000e+000
    outer loop
      vertex  4.650000e+000 -1.472243e+000  6.000000e+000
      vertex -4.297918e+000 -1.202082e+000  6.000000e+000
      vertex -4.650000e+000 -1.472243e+000  6.000000e+000
    endloop
  endfacet
  facet normal  -0.000000e+000  0.000000e+000  1.000000e+000
    outer loop
      vertex  4.650000e+000 -1.472243e+000  6.000000e+000
      vertex -4.650000e+000 -1.472243e+000  6.000000e+000
      vertex  5.060008e+000 -1.642074e+000  6.000000e+000
    endloop
  endfacet
  facet normal  0.000000e+000  0.000000e+000  1.000000e+000
    outer loop
      vertex  5.060008e+000 -1.642074e+000  6.000000e+000
      vertex -4.650000e+000 -1.472243e+000  6.000000e+000
      vertex -5.060008e+000 -1.642074e+000  6.000000e+000
    endloop
  endfacet
  facet normal  -0.000000e+000  0.000000e+000  1.000000e+000
    outer loop
      vertex  5.060008e+000 -1.642074e+000  6.000000e+000
      vertex -5.060008e+000 -1.642074e+000  6.000000e+000
      vertex  5.500000e+000 -1.700000e+000  6.000000e+000
    endloop
  endfacet
  facet normal  0.000000e+000  0.000000e+000  1.000000e+000
    outer loop
      vertex  5.500000e+000 -1.700000e+000  6.000000e+000
      vertex -5.060008e+000 -1.642074e+000  6.000000e+000
      vertex -5.500000e+000 -1.700000e+000  6.000000e+000
    endloop
  endfacet
  facet normal  -0.000000e+000  0.000000e+000  1.000000e+000
    outer loop
      vertex  7.994409e+000  1.666711e+000  6.000000e+000
      vertex  5.939992e+000  1.642074e+000  6.000000e+000
      vertex  8.271639e+000  1.148050e+000  6.000000e+000
    endloop
  endfacet
  facet normal  0.000000e+000  0.000000e+000  1.000000e+000
    outer loop
      vertex  8.271639e+000  1.148050e+000  6.000000e+000
      vertex  5.939992e+000  1.642074e+000  6.000000e+000
      vertex  6.350000e+000  1.472243e+000  6.000000e+000
    endloop
  endfacet
  facet normal  0.000000e+000  0.000000e+000  1.000000e+000
    outer loop
      vertex  8.271639e+000  1.148050e+000  6.000000e+000
      vertex  6.350000e+000  1.472243e+000  6.000000e+000
      vertex  6.702082e+000  1.202082e+000  6.000000e+000
    endloop
  endfacet
  facet normal  0.000000e+000  0.000000e+000  9.999999e-001
    outer loop
      vertex  8.271639e+000  1.148050e+000  6.000000e+000
      vertex  6.702082e+000  1.202082e+000  6.000000e+000
      vertex  8.442356e+000  5.852709e-001  6.000000e+000
    endloop
  endfacet
  facet normal  0.000000e+000  0.000000e+000  1.000000e+000
    outer loop
      vertex  8.442356e+000  5.852709e-001  6.000000e+000
      vertex  6.702082e+000  1.202082e+000  6.000000e+000
      vertex  6.972243e+000  8.500000e-001  6.000000e+000
    endloop
  endfacet
  facet normal  0.000000e+000  0.000000e+000  1.000000e+000
    outer loop
      vertex  8.442356e+000  5.852709e-001  6.000000e+000
      vertex  6.972243e+000  8.500000e-001  6.000000e+000
      vertex  7.142074e+000  4.399924e-001  6.000000e+000
    endloop
  endfacet
  facet normal  -0.000000e+000  0.000000e+000  1.000000e+000
    outer loop
      vertex  8.442356e+000  5.852709e-001  6.000000e+000
      vertex  7.142074e+000  4.399924e-001  6.000000e+000
      vertex  8.500000e+000 -8.881784e-015  6.000000e+000
    endloop
  endfacet
  facet normal  0.000000e+000  0.000000e+000  1.000000e+000
    outer loop
      vertex  8.500000e+000 -8.881784e-015  6.000000e+000
      vertex  7.142074e+000  4.399924e-001  6.000000e+000
      vertex  7.200000e+000 -8.673595e-015  6.000000e+000
    endloop
  endfacet
  facet normal  0.000000e+000  0.000000e+000  1.000000e+000
    outer loop
      vertex  8.500000e+000 -8.881784e-015  6.000000e+000
      vertex  7.200000e+000 -8.673595e-015  6.000000e+000
      vertex  8.442356e+000 -5.852709e-001  6.000000e+000
    endloop
  endfacet
  facet normal  0.000000e+000  0.000000e+000  1.000000e+000
    outer loop
      vertex  8.442356e+000 -5.852709e-001  6.000000e+000
      vertex  7.200000e+000 -8.673595e-015  6.000000e+000
      vertex  7.142074e+000 -4.399924e-001  6.000000e+000
    endloop
  endfacet
  facet normal  0.000000e+000  0.000000e+000  1.000000e+000
    outer loop
      vertex  8.442356e+000 -5.852709e-001  6.000000e+000
      vertex  7.142074e+000 -4.399924e-001  6.000000e+000
      vertex  8.271639e+000 -1.148050e+000  6.000000e+000
    endloop
  endfacet
  facet normal  0.000000e+000  0.000000e+000  1.000000e+000
    outer loop
      vertex  8.271639e+000 -1.148050e+000  6.000000e+000
      vertex  7.142074e+000 -4.399924e-001  6.000000e+000
      vertex  6.972243e+000 -8.500000e-001  6.000000e+000
    endloop
  endfacet
  facet normal  0.000000e+000  0.000000e+000  1.000000e+000
    outer loop
      vertex  8.271639e+000 -1.148050e+000  6.000000e+000
      vertex  6.972243e+000 -8.500000e-001  6.000000e+000
      vertex  6.702082e+000 -1.202082e+000  6.000000e+000
    endloop
  endfacet
  facet normal  -0.000000e+000  0.000000e+000  1.000000e+000
    outer loop
      vertex  8.271639e+000 -1.148050e+000  6.000000e+000
      vertex  6.702082e+000 -1.202082e+000  6.000000e+000
      vertex  7.994409e+000 -1.666711e+000  6.000000e+000
    endloop
  endfacet
  facet normal  0.000000e+000  0.000000e+000  1.000000e+000
    outer loop
      vertex  7.994409e+000 -1.666711e+000  6.000000e+000
      vertex  6.702082e+000 -1.202082e+000  6.000000e+000
      vertex  6.350000e+000 -1.472243e+000  6.000000e+000
    endloop
  endfacet
  facet normal  0.000000e+000  0.000000e+000  9.999999e-001
    outer loop
      vertex  7.994409e+000 -1.666711e+000  6.000000e+000
      vertex  6.350000e+000 -1.472243e+000  6.000000e+000
      vertex  5.939992e+000 -1.642074e+000  6.000000e+000
    endloop
  endfacet
  facet normal  0.000000e+000  0.000000e+000  1.000000e+000
    outer loop
      vertex  5.500000e+000 -1.700000e+000  6.000000e+000
      vertex  7.621320e+000 -2.121320e+000  6.000000e+000
      vertex  5.939992e+000 -1.642074e+000  6.000000e+000
    endloop
  endfacet
  facet normal  0.000000e+000  0.000000e+000  1.000000e+000
    outer loop
      vertex  5.939992e+000 -1.642074e+000  6.000000e+000
      vertex  7.621320e+000 -2.121320e+000  6.000000e+000
      vertex  7.994409e+000 -1.666711e+000  6.000000e+000
    endloop
  endfacet
  facet normal  0.000000e+000  0.000000e+000 -1.000000e+000
    outer loop
      vertex -7.142074e+000  4.399924e-001  0.000000e+000
      vertex -8.442356e+000  5.852709e-001  0.000000e+000
      vertex -6.972243e+000  8.500000e-001  0.000000e+000
    endloop
  endfacet
  facet normal  0.000000e+000  0.000000e+000 -1.000000e+000
    outer loop
      vertex -5.500000e+000  1.700000e+000  0.000000e+000
      vertex -5.939992e+000  1.642074e+000  0.000000e+000
      vertex -7.994409e+000  1.666711e+000  0.000000e+000
    endloop
  endfacet
  facet normal  0.000000e+000  0.000000e+000 -1.000000e+000
    outer loop
      vertex -5.500000e+000  1.700000e+000  0.000000e+000
      vertex -7.994409e+000  1.666711e+000  0.000000e+000
      vertex -7.621320e+000  2.121320e+000  0.000000e+000
    endloop
  endfacet
  facet normal  0.000000e+000  0.000000e+000 -1.000000e+000
    outer loop
      vertex -5.500000e+000  1.700000e+000  0.000000e+000
      vertex -7.621320e+000  2.121320e+000  0.000000e+000
      vertex -7.166711e+000  2.494409e+000  0.000000e+000
    endloop
  endfacet
  facet normal  0.000000e+000  0.000000e+000 -9.999999e-001
    outer loop
      vertex -5.500000e+000  1.700000e+000  0.000000e+000
      vertex -7.166711e+000  2.494409e+000  0.000000e+000
      vertex -6.648050e+000  2.771639e+000  0.000000e+000
    endloop
  endfacet
  facet normal  0.000000e+000  0.000000e+000 -1.000000e+000
    outer loop
      vertex -5.500000e+000  1.700000e+000  0.000000e+000
      vertex -6.648050e+000  2.771639e+000  0.000000e+000
      vertex -6.085271e+000  2.942356e+000  0.000000e+000
    endloop
  endfacet
  facet normal  0.000000e+000  0.000000e+000 -1.000000e+000
    outer loop
      vertex -5.500000e+000  1.700000e+000  0.000000e+000
      vertex -6.085271e+000  2.942356e+000  0.000000e+000
      vertex -5.500000e+000  3.000000e+000  0.000000e+000
    endloop
  endfacet
  facet normal  0.000000e+000  0.000000e+000 -1.000000e+000
    outer loop
      vertex -5.500000e+000  1.700000e+000  0.000000e+000
      vertex -5.500000e+000  3.000000e+000  0.000000e+000
      vertex  5.500000e+000  3.000000e+000  0.000000e+000
    endloop
  endfacet
  facet normal  0.000000e+000  -0.000000e+000 -1.000000e+000
    outer loop
      vertex -5.500000e+000  1.700000e+000  0.000000e+000
      vertex  5.500000e+000  3.000000e+000  0.000000e+000
      vertex  5.500000e+000  1.700000e+000  0.000000e+000
    endloop
  endfacet
  facet normal  -0.000000e+000  0.000000e+000 -1.000000e+000
    outer loop
      vertex -5.500000e+000  1.700000e+000  0.000000e+000
      vertex  5.500000e+000  1.700000e+000  0.000000e+000
      vertex  5.060008e+000  1.642074e+000  0.000000e+000
    endloop
  endfacet
  facet normal  0.000000e+000  0.000000e+000 -1.000000e+000
    outer loop
      vertex -5.500000e+000  1.700000e+000  0.000000e+000
      vertex  5.060008e+000  1.642074e+000  0.000000e+000
      vertex -5.060008e+000  1.642074e+000  0.000000e+000
    endloop
  endfacet
  facet normal  0.000000e+000  -0.000000e+000 -1.000000e+000
    outer loop
      vertex -8.271639e+000  1.148050e+000  0.000000e+000
      vertex -7.994409e+000  1.666711e+000  0.000000e+000
      vertex -5.939992e+000  1.642074e+000  0.000000e+000
    endloop
  endfacet
  facet normal  0.000000e+000  0.000000e+000 -1.000000e+000
    outer loop
      vertex -8.271639e+000  1.148050e+000  0.000000e+000
      vertex -5.939992e+000  1.642074e+000  0.000000e+000
      vertex -6.350000e+000  1.472243e+000  0.000000e+000
    endloop
  endfacet
  facet normal  0.000000e+000  0.000000e+000 -1.000000e+000
    outer loop
      vertex -8.271639e+000  1.148050e+000  0.000000e+000
      vertex -6.350000e+000  1.472243e+000  0.000000e+000
      vertex -6.702082e+000  1.202082e+000  0.000000e+000
    endloop
  endfacet
  facet normal  0.000000e+000  0.000000e+000 -1.000000e+000
    outer loop
      vertex -8.271639e+000  1.148050e+000  0.000000e+000
      vertex -6.702082e+000  1.202082e+000  0.000000e+000
      vertex -6.972243e+000  8.500000e-001  0.000000e+000
    endloop
  endfacet
  facet normal  -0.000000e+000  0.000000e+000 -1.000000e+000
    outer loop
      vertex -8.271639e+000  1.148050e+000  0.000000e+000
      vertex -6.972243e+000  8.500000e-001  0.000000e+000
      vertex -8.442356e+000  5.852709e-001  0.000000e+000
    endloop
  endfacet
  facet normal  0.000000e+000  0.000000e+000 -1.000000e+000
    outer loop
      vertex -7.994409e+000 -1.666711e+000  0.000000e+000
      vertex -8.271639e+000 -1.148050e+000  0.000000e+000
      vertex -6.702082e+000 -1.202082e+000  0.000000e+000
    endloop
  endfacet
  facet normal  0.000000e+000  -0.000000e+000 -1.000000e+000
    outer loop
      vertex -7.994409e+000 -1.666711e+000  0.000000e+000
      vertex -6.702082e+000 -1.202082e+000  0.000000e+000
      vertex -6.350000e+000 -1.472243e+000  0.000000e+000
    endloop
  endfacet
  facet normal  0.000000e+000  -0.000000e+000 -9.999999e-001
    outer loop
      vertex -7.994409e+000 -1.666711e+000  0.000000e+000
      vertex -6.350000e+000 -1.472243e+000  0.000000e+000
      vertex -5.939992e+000 -1.642074e+000  0.000000e+000
    endloop
  endfacet
  facet normal  0.000000e+000  -0.000000e+000 -1.000000e+000
    outer loop
      vertex -7.994409e+000 -1.666711e+000  0.000000e+000
      vertex -5.939992e+000 -1.642074e+000  0.000000e+000
      vertex -5.500000e+000 -1.700000e+000  0.000000e+000
    endloop
  endfacet
  facet normal  -0.000000e+000  0.000000e+000 -1.000000e+000
    outer loop
      vertex -7.994409e+000 -1.666711e+000  0.000000e+000
      vertex -5.500000e+000 -1.700000e+000  0.000000e+000
      vertex -7.621320e+000 -2.121320e+000  0.000000e+000
    endloop
  endfacet
  facet normal  0.000000e+000  0.000000e+000 -1.000000e+000
    outer loop
      vertex -5.500000e+000 -3.000000e+000  0.000000e+000
      vertex -6.085271e+000 -2.942356e+000  0.000000e+000
      vertex -6.648050e+000 -2.771639e+000  0.000000e+000
    endloop
  endfacet
  facet normal  0.000000e+000  0.000000e+000 -1.000000e+000
    outer loop
      vertex -5.500000e+000 -3.000000e+000  0.000000e+000
      vertex -6.648050e+000 -2.771639e+000  0.000000e+000
      vertex -7.166711e+000 -2.494409e+000  0.000000e+000
    endloop
  endfacet
  facet normal  0.000000e+000  0.000000e+000 -9.999999e-001
    outer loop
      vertex -5.500000e+000 -3.000000e+000  0.000000e+000
      vertex -7.166711e+000 -2.494409e+000  0.000000e+000
      vertex -7.621320e+000 -2.121320e+000  0.000000e+000
    endloop
  endfacet
  facet normal  0.000000e+000  0.000000e+000 -1.000000e+000
    outer loop
      vertex -5.500000e+000 -3.000000e+000  0.000000e+000
      vertex -7.621320e+000 -2.121320e+000  0.000000e+000
      vertex -5.500000e+000 -1.700000e+000  0.000000e+000
    endloop
  endfacet
  facet normal  0.000000e+000  0.000000e+000 -1.000000e+000
    outer loop
      vertex -5.500000e+000 -3.000000e+000  0.000000e+000
      vertex -5.500000e+000 -1.700000e+000  0.000000e+000
      vertex  5.500000e+000 -1.700000e+000  0.000000e+000
    endloop
  endfacet
  facet normal  0.000000e+000  -0.000000e+000 -1.000000e+000
    outer loop
      vertex -5.500000e+000 -3.000000e+000  0.000000e+000
      vertex  5.500000e+000 -1.700000e+000  0.000000e+000
      vertex  5.500000e+000 -3.000000e+000  0.000000e+000
    endloop
  endfacet
  facet normal  0.000000e+000  0.000000e+000 -1.000000e+000
    outer loop
      vertex  5.500000e+000  1.700000e+000  0.000000e+000
      vertex  5.500000e+000  3.000000e+000  0.000000e+000
      vertex  6.085271e+000  2.942356e+000  0.000000e+000
    endloop
  endfacet
  facet normal  0.000000e+000  -0.000000e+000 -1.000000e+000
    outer loop
      vertex  5.500000e+000  1.700000e+000  0.000000e+000
      vertex  6.085271e+000  2.942356e+000  0.000000e+000
      vertex  6.648050e+000  2.771639e+000  0.000000e+000
    endloop
  endfacet
  facet normal  0.000000e+000  -0.000000e+000 -1.000000e+000
    outer loop
      vertex  5.500000e+000  1.700000e+000  0.000000e+000
      vertex  6.648050e+000  2.771639e+000  0.000000e+000
      vertex  7.166711e+000  2.494409e+000  0.000000e+000
    endloop
  endfacet
  facet normal  0.000000e+000  -0.000000e+000 -1.000000e+000
    outer loop
      vertex  5.500000e+000  1.700000e+000  0.000000e+000
      vertex  7.166711e+000  2.494409e+000  0.000000e+000
      vertex  7.621320e+000  2.121320e+000  0.000000e+000
    endloop
  endfacet
  facet normal  0.000000e+000  -0.000000e+000 -1.000000e+000
    outer loop
      vertex  5.500000e+000  1.700000e+000  0.000000e+000
      vertex  7.621320e+000  2.121320e+000  0.000000e+000
      vertex  7.994409e+000  1.666711e+000  0.000000e+000
    endloop
  endfacet
  facet normal  -0.000000e+000  0.000000e+000 -1.000000e+000
    outer loop
      vertex  5.500000e+000  1.700000e+000  0.000000e+000
      vertex  7.994409e+000  1.666711e+000  0.000000e+000
      vertex  5.939992e+000  1.642074e+000  0.000000e+000
    endloop
  endfacet
  facet normal  0.000000e+000  0.000000e+000 -1.000000e+000
    outer loop
      vertex  5.500000e+000 -3.000000e+000  0.000000e+000
      vertex  5.500000e+000 -1.700000e+000  0.000000e+000
      vertex  7.621320e+000 -2.121320e+000  0.000000e+000
    endloop
  endfacet
  facet normal  0.000000e+000  0.000000e+000 -9.999999e-001
    outer loop
      vertex  5.500000e+000 -3.000000e+000  0.000000e+000
      vertex  7.621320e+000 -2.121320e+000  0.000000e+000
      vertex  7.166711e+000 -2.494409e+000  0.000000e+000
    endloop
  endfacet
  facet normal  0.000000e+000  0.000000e+000 -9.999999e-001
    outer loop
      vertex  5.500000e+000 -3.000000e+000  0.000000e+000
      vertex  7.166711e+000 -2.494409e+000  0.000000e+000
      vertex  6.648050e+000 -2.771639e+000  0.000000e+000
    endloop
  endfacet
  facet normal  0.000000e+000  0.000000e+000 -1.000000e+000
    outer loop
      vertex  5.500000e+000 -3.000000e+000  0.000000e+000
      vertex  6.648050e+000 -2.771639e+000  0.000000e+000
      vertex  6.085271e+000 -2.942356e+000  0.000000e+000
    endloop
  endfacet
  facet normal  0.000000e+000  0.000000e+000 -1.000000e+000
    outer loop
      vertex -6.702082e+000 -1.202082e+000  0.000000e+000
      vertex -8.271639e+000 -1.148050e+000  0.000000e+000
      vertex -6.972243e+000 -8.500000e-001  0.000000e+000
    endloop
  endfacet
  facet normal  -0.000000e+000  0.000000e+000 -1.000000e+000
    outer loop
      vertex -6.972243e+000 -8.500000e-001  0.000000e+000
      vertex -8.271639e+000 -1.148050e+000  0.000000e+000
      vertex -8.442356e+000 -5.852709e-001  0.000000e+000
    endloop
  endfacet
  facet normal  0.000000e+000  0.000000e+000 -1.000000e+000
    outer loop
      vertex -6.972243e+000 -8.500000e-001  0.000000e+000
      vertex -8.442356e+000 -5.852709e-001  0.000000e+000
      vertex -7.142074e+000 -4.399924e-001  0.000000e+000
    endloop
  endfacet
  facet normal  -0.000000e+000  0.000000e+000 -1.000000e+000
    outer loop
      vertex -7.142074e+000 -4.399924e-001  0.000000e+000
      vertex -8.442356e+000 -5.852709e-001  0.000000e+000
      vertex -8.500000e+000 -1.029075e-014  0.000000e+000
    endloop
  endfacet
  facet normal  0.000000e+000  0.000000e+000 -1.000000e+000
    outer loop
      vertex -7.142074e+000 -4.399924e-001  0.000000e+000
      vertex -8.500000e+000 -1.029075e-014  0.000000e+000
      vertex -7.200000e+000 -8.673595e-015  0.000000e+000
    endloop
  endfacet
  facet normal  -0.000000e+000  0.000000e+000 -1.000000e+000
    outer loop
      vertex -7.200000e+000 -8.673595e-015  0.000000e+000
      vertex -8.500000e+000 -1.029075e-014  0.000000e+000
      vertex -8.442356e+000  5.852709e-001  0.000000e+000
    endloop
  endfacet
  facet normal  0.000000e+000  0.000000e+000 -1.000000e+000
    outer loop
      vertex -7.200000e+000 -8.673595e-015  0.000000e+000
      vertex -8.442356e+000  5.852709e-001  0.000000e+000
      vertex -7.142074e+000  4.399924e-001  0.000000e+000
    endloop
  endfacet
  facet normal  0.000000e+000  0.000000e+000 -1.000000e+000
    outer loop
      vertex  3.800000e+000 -8.881784e-015  0.000000e+000
      vertex -3.857926e+000  4.399924e-001  0.000000e+000
      vertex  3.857926e+000  4.399924e-001  0.000000e+000
    endloop
  endfacet
  facet normal  0.000000e+000  0.000000e+000 -1.000000e+000
    outer loop
      vertex  3.857926e+000  4.399924e-001  0.000000e+000
      vertex -3.857926e+000  4.399924e-001  0.000000e+000
      vertex -4.027757e+000  8.500000e-001  0.000000e+000
    endloop
  endfacet
  facet normal  0.000000e+000  0.000000e+000 -1.000000e+000
    outer loop
      vertex  3.857926e+000  4.399924e-001  0.000000e+000
      vertex -4.027757e+000  8.500000e-001  0.000000e+000
      vertex  4.027757e+000  8.500000e-001  0.000000e+000
    endloop
  endfacet
  facet normal  0.000000e+000  0.000000e+000 -1.000000e+000
    outer loop
      vertex  4.027757e+000  8.500000e-001  0.000000e+000
      vertex -4.027757e+000  8.500000e-001  0.000000e+000
      vertex -4.297918e+000  1.202082e+000  0.000000e+000
    endloop
  endfacet
  facet normal  0.000000e+000  0.000000e+000 -9.999999e-001
    outer loop
      vertex  4.027757e+000  8.500000e-001  0.000000e+000
      vertex -4.297918e+000  1.202082e+000  0.000000e+000
      vertex  4.297918e+000  1.202082e+000  0.000000e+000
    endloop
  endfacet
  facet normal  0.000000e+000  0.000000e+000 -1.000000e+000
    outer loop
      vertex  4.297918e+000  1.202082e+000  0.000000e+000
      vertex -4.297918e+000  1.202082e+000  0.000000e+000
      vertex -4.650000e+000  1.472243e+000  0.000000e+000
    endloop
  endfacet
  facet normal  0.000000e+000  0.000000e+000 -1.000000e+000
    outer loop
      vertex  4.297918e+000  1.202082e+000  0.000000e+000
      vertex -4.650000e+000  1.472243e+000  0.000000e+000
      vertex  4.650000e+000  1.472243e+000  0.000000e+000
    endloop
  endfacet
  facet normal  0.000000e+000  0.000000e+000 -1.000000e+000
    outer loop
      vertex  4.650000e+000  1.472243e+000  0.000000e+000
      vertex -4.650000e+000  1.472243e+000  0.000000e+000
      vertex -5.060008e+000  1.642074e+000  0.000000e+000
    endloop
  endfacet
  facet normal  0.000000e+000  0.000000e+000 -1.000000e+000
    outer loop
      vertex  4.650000e+000  1.472243e+000  0.000000e+000
      vertex -5.060008e+000  1.642074e+000  0.000000e+000
      vertex  5.060008e+000  1.642074e+000  0.000000e+000
    endloop
  endfacet
  facet normal  0.000000e+000  0.000000e+000 -9.999999e-001
    outer loop
      vertex -3.857926e+000  4.399924e-001  0.000000e+000
      vertex  3.800000e+000 -8.881784e-015  0.000000e+000
      vertex -3.800000e+000 -8.881784e-015  0.000000e+000
    endloop
  endfacet
  facet normal  0.000000e+000  0.000000e+000 -9.999999e-001
    outer loop
      vertex -3.800000e+000 -8.881784e-015  0.000000e+000
      vertex  3.800000e+000 -8.881784e-015  0.000000e+000
      vertex  3.857926e+000 -4.399924e-001  0.000000e+000
    endloop
  endfacet
  facet normal  0.000000e+000  0.000000e+000 -1.000000e+000
    outer loop
      vertex -3.800000e+000 -8.881784e-015  0.000000e+000
      vertex  3.857926e+000 -4.399924e-001  0.000000e+000
      vertex -3.857926e+000 -4.399924e-001  0.000000e+000
    endloop
  endfacet
  facet normal  0.000000e+000  0.000000e+000 -1.000000e+000
    outer loop
      vertex -3.857926e+000 -4.399924e-001  0.000000e+000
      vertex  3.857926e+000 -4.399924e-001  0.000000e+000
      vertex  4.027757e+000 -8.500000e-001  0.000000e+000
    endloop
  endfacet
  facet normal  0.000000e+000  0.000000e+000 -1.000000e+000
    outer loop
      vertex -3.857926e+000 -4.399924e-001  0.000000e+000
      vertex  4.027757e+000 -8.500000e-001  0.000000e+000
      vertex -4.027757e+000 -8.500000e-001  0.000000e+000
    endloop
  endfacet
  facet normal  0.000000e+000  0.000000e+000 -1.000000e+000
    outer loop
      vertex -4.027757e+000 -8.500000e-001  0.000000e+000
      vertex  4.027757e+000 -8.500000e-001  0.000000e+000
      vertex  4.297918e+000 -1.202082e+000  0.000000e+000
    endloop
  endfacet
  facet normal  0.000000e+000  0.000000e+000 -9.999999e-001
    outer loop
      vertex -4.027757e+000 -8.500000e-001  0.000000e+000
      vertex  4.297918e+000 -1.202082e+000  0.000000e+000
      vertex -4.297918e+000 -1.202082e+000  0.000000e+000
    endloop
  endfacet
  facet normal  0.000000e+000  0.000000e+000 -1.000000e+000
    outer loop
      vertex -4.297918e+000 -1.202082e+000  0.000000e+000
      vertex  4.297918e+000 -1.202082e+000  0.000000e+000
      vertex  4.650000e+000 -1.472243e+000  0.000000e+000
    endloop
  endfacet
  facet normal  0.000000e+000  0.000000e+000 -1.000000e+000
    outer loop
      vertex -4.297918e+000 -1.202082e+000  0.000000e+000
      vertex  4.650000e+000 -1.472243e+000  0.000000e+000
      vertex -4.650000e+000 -1.472243e+000  0.000000e+000
    endloop
  endfacet
  facet normal  0.000000e+000  0.000000e+000 -1.000000e+000
    outer loop
      vertex -4.650000e+000 -1.472243e+000  0.000000e+000
      vertex  4.650000e+000 -1.472243e+000  0.000000e+000
      vertex  5.060008e+000 -1.642074e+000  0.000000e+000
    endloop
  endfacet
  facet normal  0.000000e+000  0.000000e+000 -1.000000e+000
    outer loop
      vertex -4.650000e+000 -1.472243e+000  0.000000e+000
      vertex  5.060008e+000 -1.642074e+000  0.000000e+000
      vertex -5.060008e+000 -1.642074e+000  0.000000e+000
    endloop
  endfacet
  facet normal  0.000000e+000  0.000000e+000 -1.000000e+000
    outer loop
      vertex -5.060008e+000 -1.642074e+000  0.000000e+000
      vertex  5.060008e+000 -1.642074e+000  0.000000e+000
      vertex  5.500000e+000 -1.700000e+000  0.000000e+000
    endloop
  endfacet
  facet normal  0.000000e+000  0.000000e+000 -1.000000e+000
    outer loop
      vertex -5.060008e+000 -1.642074e+000  0.000000e+000
      vertex  5.500000e+000 -1.700000e+000  0.000000e+000
      vertex -5.500000e+000 -1.700000e+000  0.000000e+000
    endloop
  endfacet
  facet normal  0.000000e+000  0.000000e+000 -1.000000e+000
    outer loop
      vertex  6.702082e+000  1.202082e+000  0.000000e+000
      vertex  6.350000e+000  1.472243e+000  0.000000e+000
      vertex  8.271639e+000  1.148050e+000  0.000000e+000
    endloop
  endfacet
  facet normal  0.000000e+000  0.000000e+000 -1.000000e+000
    outer loop
      vertex  8.271639e+000  1.148050e+000  0.000000e+000
      vertex  6.350000e+000  1.472243e+000  0.000000e+000
      vertex  5.939992e+000  1.642074e+000  0.000000e+000
    endloop
  endfacet
  facet normal  0.000000e+000  0.000000e+000 -1.000000e+000
    outer loop
      vertex  8.271639e+000  1.148050e+000  0.000000e+000
      vertex  5.939992e+000  1.642074e+000  0.000000e+000
      vertex  7.994409e+000  1.666711e+000  0.000000e+000
    endloop
  endfacet
  facet normal  0.000000e+000  0.000000e+000 -1.000000e+000
    outer loop
      vertex  7.142074e+000  4.399924e-001  0.000000e+000
      vertex  6.972243e+000  8.500000e-001  0.000000e+000
      vertex  8.442356e+000  5.852709e-001  0.000000e+000
    endloop
  endfacet
  facet normal  0.000000e+000  0.000000e+000 -1.000000e+000
    outer loop
      vertex  8.442356e+000  5.852709e-001  0.000000e+000
      vertex  6.972243e+000  8.500000e-001  0.000000e+000
      vertex  6.702082e+000  1.202082e+000  0.000000e+000
    endloop
  endfacet
  facet normal  0.000000e+000  0.000000e+000 -9.999999e-001
    outer loop
      vertex  8.442356e+000  5.852709e-001  0.000000e+000
      vertex  6.702082e+000  1.202082e+000  0.000000e+000
      vertex  8.271639e+000  1.148050e+000  0.000000e+000
    endloop
  endfacet
  facet normal  0.000000e+000  -0.000000e+000 -1.000000e+000
    outer loop
      vertex  6.702082e+000 -1.202082e+000  0.000000e+000
      vertex  6.972243e+000 -8.500000e-001  0.000000e+000
      vertex  8.271639e+000 -1.148050e+000  0.000000e+000
    endloop
  endfacet
  facet normal  0.000000e+000  0.000000e+000 -1.000000e+000
    outer loop
      vertex  8.271639e+000 -1.148050e+000  0.000000e+000
      vertex  6.972243e+000 -8.500000e-001  0.000000e+000
      vertex  7.142074e+000 -4.399924e-001  0.000000e+000
    endloop
  endfacet
  facet normal  0.000000e+000  0.000000e+000 -1.000000e+000
    outer loop
      vertex  8.271639e+000 -1.148050e+000  0.000000e+000
      vertex  7.142074e+000 -4.399924e-001  0.000000e+000
      vertex  8.442356e+000 -5.852709e-001  0.000000e+000
    endloop
  endfacet
  facet normal  0.000000e+000  0.000000e+000 -1.000000e+000
    outer loop
      vertex  8.442356e+000 -5.852709e-001  0.000000e+000
      vertex  7.142074e+000 -4.399924e-001  0.000000e+000
      vertex  7.200000e+000 -8.673595e-015  0.000000e+000
    endloop
  endfacet
  facet normal  0.000000e+000  0.000000e+000 -1.000000e+000
    outer loop
      vertex  8.442356e+000 -5.852709e-001  0.000000e+000
      vertex  7.200000e+000 -8.673595e-015  0.000000e+000
      vertex  8.500000e+000 -8.881784e-015  0.000000e+000
    endloop
  endfacet
  facet normal  0.000000e+000  0.000000e+000 -1.000000e+000
    outer loop
      vertex  8.500000e+000 -8.881784e-015  0.000000e+000
      vertex  7.200000e+000 -8.673595e-015  0.000000e+000
      vertex  7.142074e+000  4.399924e-001  0.000000e+000
    endloop
  endfacet
  facet normal  0.000000e+000  0.000000e+000 -1.000000e+000
    outer loop
      vertex  8.500000e+000 -8.881784e-015  0.000000e+000
      vertex  7.142074e+000  4.399924e-001  0.000000e+000
      vertex  8.442356e+000  5.852709e-001  0.000000e+000
    endloop
  endfacet
  facet normal  0.000000e+000  -0.000000e+000 -9.999999e-001
    outer loop
      vertex  5.939992e+000 -1.642074e+000  0.000000e+000
      vertex  6.350000e+000 -1.472243e+000  0.000000e+000
      vertex  7.994409e+000 -1.666711e+000  0.000000e+000
    endloop
  endfacet
  facet normal  0.000000e+000  0.000000e+000 -1.000000e+000
    outer loop
      vertex  7.994409e+000 -1.666711e+000  0.000000e+000
      vertex  6.350000e+000 -1.472243e+000  0.000000e+000
      vertex  6.702082e+000 -1.202082e+000  0.000000e+000
    endloop
  endfacet
  facet normal  0.000000e+000  0.000000e+000 -1.000000e+000
    outer loop
      vertex  7.994409e+000 -1.666711e+000  0.000000e+000
      vertex  6.702082e+000 -1.202082e+000  0.000000e+000
      vertex  8.271639e+000 -1.148050e+000  0.000000e+000
    endloop
  endfacet
  facet normal  0.000000e+000  -0.000000e+000 -1.000000e+000
    outer loop
      vertex  5.500000e+000 -1.700000e+000  0.000000e+000
      vertex  5.939992e+000 -1.642074e+000  0.000000e+000
      vertex  7.621320e+000 -2.121320e+000  0.000000e+000
    endloop
  endfacet
  facet normal  0.000000e+000  0.000000e+000 -1.000000e+000
    outer loop
      vertex  7.621320e+000 -2.121320e+000  0.000000e+000
      vertex  5.939992e+000 -1.642074e+000  0.000000e+000
      vertex  7.994409e+000 -1.666711e+000  0.000000e+000
    endloop
  endfacet
  facet normal  1.305264e-001  9.914448e-001  -0.000000e+000
    outer loop
      vertex  5.500000e+000 -1.700000e+000  6.000000e+000
      vertex  5.060008e+000 -1.642074e+000  0.000000e+000
      vertex  5.060008e+000 -1.642074e+000  6.000000e+000
    endloop
  endfacet
  facet normal  3.826835e-001  9.238794e-001  0.000000e+000
    outer loop
      vertex  5.060008e+000 -1.642074e+000  6.000000e+000
      vertex  5.060008e+000 -1.642074e+000  0.000000e+000
      vertex  4.650000e+000 -1.472243e+000  0.000000e+000
    endloop
  endfacet
  facet normal  3.826835e-001  9.238794e-001  -0.000000e+000
    outer loop
      vertex  5.060008e+000 -1.642074e+000  6.000000e+000
      vertex  4.650000e+000 -1.472243e+000  0.000000e+000
      vertex  4.650000e+000 -1.472243e+000  6.000000e+000
    endloop
  endfacet
  facet normal  6.087611e-001  7.933536e-001  0.000000e+000
    outer loop
      vertex  4.650000e+000 -1.472243e+000  6.000000e+000
      vertex  4.650000e+000 -1.472243e+000  0.000000e+000
      vertex  4.297918e+000 -1.202082e+000  0.000000e+000
    endloop
  endfacet
  facet normal  6.087611e-001  7.933536e-001  -0.000000e+000
    outer loop
      vertex  4.650000e+000 -1.472243e+000  6.000000e+000
      vertex  4.297918e+000 -1.202082e+000  0.000000e+000
      vertex  4.297918e+000 -1.202082e+000  6.000000e+000
    endloop
  endfacet
  facet normal  7.933534e-001  6.087614e-001  0.000000e+000
    outer loop
      vertex  4.297918e+000 -1.202082e+000  6.000000e+000
      vertex  4.297918e+000 -1.202082e+000  0.000000e+000
      vertex  4.027757e+000 -8.500000e-001  0.000000e+000
    endloop
  endfacet
  facet normal  7.933534e-001  6.087614e-001  -0.000000e+000
    outer loop
      vertex  4.297918e+000 -1.202082e+000  6.000000e+000
      vertex  4.027757e+000 -8.500000e-001  0.000000e+000
      vertex  4.027757e+000 -8.500000e-001  6.000000e+000
    endloop
  endfacet
  facet normal  9.238797e-001  3.826831e-001  0.000000e+000
    outer loop
      vertex  4.027757e+000 -8.500000e-001  6.000000e+000
      vertex  4.027757e+000 -8.500000e-001  0.000000e+000
      vertex  3.857926e+000 -4.399924e-001  0.000000e+000
    endloop
  endfacet
  facet normal  9.238797e-001  3.826831e-001  -0.000000e+000
    outer loop
      vertex  4.027757e+000 -8.500000e-001  6.000000e+000
      vertex  3.857926e+000 -4.399924e-001  0.000000e+000
      vertex  3.857926e+000 -4.399924e-001  6.000000e+000
    endloop
  endfacet
  facet normal  9.914448e-001  1.305264e-001  0.000000e+000
    outer loop
      vertex  3.857926e+000 -4.399924e-001  6.000000e+000
      vertex  3.857926e+000 -4.399924e-001  0.000000e+000
      vertex  3.800000e+000 -8.881784e-015  0.000000e+000
    endloop
  endfacet
  facet normal  9.914448e-001  1.305264e-001  -0.000000e+000
    outer loop
      vertex  3.857926e+000 -4.399924e-001  6.000000e+000
      vertex  3.800000e+000 -8.881784e-015  0.000000e+000
      vertex  3.800000e+000 -8.881784e-015  6.000000e+000
    endloop
  endfacet
  facet normal  1.305264e-001  9.914448e-001  0.000000e+000
    outer loop
      vertex  5.060008e+000 -1.642074e+000  0.000000e+000
      vertex  5.500000e+000 -1.700000e+000  6.000000e+000
      vertex  5.500000e+000 -1.700000e+000  0.000000e+000
    endloop
  endfacet
  facet normal -1.305264e-001  9.914448e-001  0.000000e+000
    outer loop
      vertex  5.500000e+000 -1.700000e+000  0.000000e+000
      vertex  5.500000e+000 -1.700000e+000  6.000000e+000
      vertex  5.939992e+000 -1.642074e+000  6.000000e+000
    endloop
  endfacet
  facet normal -1.305264e-001  9.914448e-001  0.000000e+000
    outer loop
      vertex  5.500000e+000 -1.700000e+000  0.000000e+000
      vertex  5.939992e+000 -1.642074e+000  6.000000e+000
      vertex  5.939992e+000 -1.642074e+000  0.000000e+000
    endloop
  endfacet
  facet normal -3.826835e-001  9.238794e-001  0.000000e+000
    outer loop
      vertex  5.939992e+000 -1.642074e+000  0.000000e+000
      vertex  5.939992e+000 -1.642074e+000  6.000000e+000
      vertex  6.350000e+000 -1.472243e+000  6.000000e+000
    endloop
  endfacet
  facet normal -3.826835e-001  9.238794e-001  0.000000e+000
    outer loop
      vertex  5.939992e+000 -1.642074e+000  0.000000e+000
      vertex  6.350000e+000 -1.472243e+000  6.000000e+000
      vertex  6.350000e+000 -1.472243e+000  0.000000e+000
    endloop
  endfacet
  facet normal -6.087611e-001  7.933536e-001  0.000000e+000
    outer loop
      vertex  6.350000e+000 -1.472243e+000  0.000000e+000
      vertex  6.350000e+000 -1.472243e+000  6.000000e+000
      vertex  6.702082e+000 -1.202082e+000  6.000000e+000
    endloop
  endfacet
  facet normal -6.087611e-001  7.933536e-001  0.000000e+000
    outer loop
      vertex  6.350000e+000 -1.472243e+000  0.000000e+000
      vertex  6.702082e+000 -1.202082e+000  6.000000e+000
      vertex  6.702082e+000 -1.202082e+000  0.000000e+000
    endloop
  endfacet
  facet normal -7.933534e-001  6.087614e-001  0.000000e+000
    outer loop
      vertex  6.702082e+000 -1.202082e+000  0.000000e+000
      vertex  6.702082e+000 -1.202082e+000  6.000000e+000
      vertex  6.972243e+000 -8.500000e-001  6.000000e+000
    endloop
  endfacet
  facet normal -7.933534e-001  6.087614e-001  0.000000e+000
    outer loop
      vertex  6.702082e+000 -1.202082e+000  0.000000e+000
      vertex  6.972243e+000 -8.500000e-001  6.000000e+000
      vertex  6.972243e+000 -8.500000e-001  0.000000e+000
    endloop
  endfacet
  facet normal -9.238795e-001  3.826836e-001  0.000000e+000
    outer loop
      vertex  6.972243e+000 -8.500000e-001  0.000000e+000
      vertex  6.972243e+000 -8.500000e-001  6.000000e+000
      vertex  7.142074e+000 -4.399924e-001  6.000000e+000
    endloop
  endfacet
  facet normal -9.238795e-001  3.826836e-001  0.000000e+000
    outer loop
      vertex  6.972243e+000 -8.500000e-001  0.000000e+000
      vertex  7.142074e+000 -4.399924e-001  6.000000e+000
      vertex  7.142074e+000 -4.399924e-001  0.000000e+000
    endloop
  endfacet
  facet normal -9.914450e-001  1.305253e-001  0.000000e+000
    outer loop
      vertex  7.142074e+000 -4.399924e-001  0.000000e+000
      vertex  7.142074e+000 -4.399924e-001  6.000000e+000
      vertex  7.200000e+000 -8.673595e-015  6.000000e+000
    endloop
  endfacet
  facet normal -9.914450e-001  1.305253e-001  0.000000e+000
    outer loop
      vertex  7.142074e+000 -4.399924e-001  0.000000e+000
      vertex  7.200000e+000 -8.673595e-015  6.000000e+000
      vertex  7.200000e+000 -8.673595e-015  0.000000e+000
    endloop
  endfacet
  facet normal -1.305264e-001 -9.914448e-001  0.000000e+000
    outer loop
      vertex  5.500000e+000  1.700000e+000  6.000000e+000
      vertex  5.939992e+000  1.642074e+000  0.000000e+000
      vertex  5.939992e+000  1.642074e+000  6.000000e+000
    endloop
  endfacet
  facet normal -3.826835e-001 -9.238794e-001  -0.000000e+000
    outer loop
      vertex  5.939992e+000  1.642074e+000  6.000000e+000
      vertex  5.939992e+000  1.642074e+000  0.000000e+000
      vertex  6.350000e+000  1.472243e+000  0.000000e+000
    endloop
  endfacet
  facet normal -3.826835e-001 -9.238794e-001  0.000000e+000
    outer loop
      vertex  5.939992e+000  1.642074e+000  6.000000e+000
      vertex  6.350000e+000  1.472243e+000  0.000000e+000
      vertex  6.350000e+000  1.472243e+000  6.000000e+000
    endloop
  endfacet
  facet normal -6.087611e-001 -7.933536e-001  -0.000000e+000
    outer loop
      vertex  6.350000e+000  1.472243e+000  6.000000e+000
      vertex  6.350000e+000  1.472243e+000  0.000000e+000
      vertex  6.702082e+000  1.202082e+000  0.000000e+000
    endloop
  endfacet
  facet normal -6.087611e-001 -7.933536e-001  0.000000e+000
    outer loop
      vertex  6.350000e+000  1.472243e+000  6.000000e+000
      vertex  6.702082e+000  1.202082e+000  0.000000e+000
      vertex  6.702082e+000  1.202082e+000  6.000000e+000
    endloop
  endfacet
  facet normal -7.933534e-001 -6.087614e-001  -0.000000e+000
    outer loop
      vertex  6.702082e+000  1.202082e+000  6.000000e+000
      vertex  6.702082e+000  1.202082e+000  0.000000e+000
      vertex  6.972243e+000  8.500000e-001  0.000000e+000
    endloop
  endfacet
  facet normal -7.933534e-001 -6.087614e-001  0.000000e+000
    outer loop
      vertex  6.702082e+000  1.202082e+000  6.000000e+000
      vertex  6.972243e+000  8.500000e-001  0.000000e+000
      vertex  6.972243e+000  8.500000e-001  6.000000e+000
    endloop
  endfacet
  facet normal -9.238795e-001 -3.826836e-001  -0.000000e+000
    outer loop
      vertex  6.972243e+000  8.500000e-001  6.000000e+000
      vertex  6.972243e+000  8.500000e-001  0.000000e+000
      vertex  7.142074e+000  4.399924e-001  0.000000e+000
    endloop
  endfacet
  facet normal -9.238795e-001 -3.826836e-001  0.000000e+000
    outer loop
      vertex  6.972243e+000  8.500000e-001  6.000000e+000
      vertex  7.142074e+000  4.399924e-001  0.000000e+000
      vertex  7.142074e+000  4.399924e-001  6.000000e+000
    endloop
  endfacet
  facet normal -9.914450e-001 -1.305253e-001  -0.000000e+000
    outer loop
      vertex  7.142074e+000  4.399924e-001  6.000000e+000
      vertex  7.142074e+000  4.399924e-001  0.000000e+000
      vertex  7.200000e+000 -8.673595e-015  0.000000e+000
    endloop
  endfacet
  facet normal -9.914450e-001 -1.305253e-001  0.000000e+000
    outer loop
      vertex  7.142074e+000  4.399924e-001  6.000000e+000
      vertex  7.200000e+000 -8.673595e-015  0.000000e+000
      vertex  7.200000e+000 -8.673595e-015  6.000000e+000
    endloop
  endfacet
  facet normal -1.305264e-001 -9.914448e-001  -0.000000e+000
    outer loop
      vertex  5.939992e+000  1.642074e+000  0.000000e+000
      vertex  5.500000e+000  1.700000e+000  6.000000e+000
      vertex  5.500000e+000  1.700000e+000  0.000000e+000
    endloop
  endfacet
  facet normal  1.305264e-001 -9.914448e-001  0.000000e+000
    outer loop
      vertex  5.500000e+000  1.700000e+000  0.000000e+000
      vertex  5.500000e+000  1.700000e+000  6.000000e+000
      vertex  5.060008e+000  1.642074e+000  6.000000e+000
    endloop
  endfacet
  facet normal  1.305264e-001 -9.914448e-001  0.000000e+000
    outer loop
      vertex  5.500000e+000  1.700000e+000  0.000000e+000
      vertex  5.060008e+000  1.642074e+000  6.000000e+000
      vertex  5.060008e+000  1.642074e+000  0.000000e+000
    endloop
  endfacet
  facet normal  3.826835e-001 -9.238794e-001  0.000000e+000
    outer loop
      vertex  5.060008e+000  1.642074e+000  0.000000e+000
      vertex  5.060008e+000  1.642074e+000  6.000000e+000
      vertex  4.650000e+000  1.472243e+000  6.000000e+000
    endloop
  endfacet
  facet normal  3.826835e-001 -9.238794e-001  0.000000e+000
    outer loop
      vertex  5.060008e+000  1.642074e+000  0.000000e+000
      vertex  4.650000e+000  1.472243e+000  6.000000e+000
      vertex  4.650000e+000  1.472243e+000  0.000000e+000
    endloop
  endfacet
  facet normal  6.087611e-001 -7.933536e-001  0.000000e+000
    outer loop
      vertex  4.650000e+000  1.472243e+000  0.000000e+000
      vertex  4.650000e+000  1.472243e+000  6.000000e+000
      vertex  4.297918e+000  1.202082e+000  6.000000e+000
    endloop
  endfacet
  facet normal  6.087611e-001 -7.933536e-001  0.000000e+000
    outer loop
      vertex  4.650000e+000  1.472243e+000  0.000000e+000
      vertex  4.297918e+000  1.202082e+000  6.000000e+000
      vertex  4.297918e+000  1.202082e+000  0.000000e+000
    endloop
  endfacet
  facet normal  7.933534e-001 -6.087614e-001  0.000000e+000
    outer loop
      vertex  4.297918e+000  1.202082e+000  0.000000e+000
      vertex  4.297918e+000  1.202082e+000  6.000000e+000
      vertex  4.027757e+000  8.500000e-001  6.000000e+000
    endloop
  endfacet
  facet normal  7.933534e-001 -6.087614e-001  0.000000e+000
    outer loop
      vertex  4.297918e+000  1.202082e+000  0.000000e+000
      vertex  4.027757e+000  8.500000e-001  6.000000e+000
      vertex  4.027757e+000  8.500000e-001  0.000000e+000
    endloop
  endfacet
  facet normal  9.238797e-001 -3.826831e-001  0.000000e+000
    outer loop
      vertex  4.027757e+000  8.500000e-001  0.000000e+000
      vertex  4.027757e+000  8.500000e-001  6.000000e+000
      vertex  3.857926e+000  4.399924e-001  6.000000e+000
    endloop
  endfacet
  facet normal  9.238797e-001 -3.826831e-001  0.000000e+000
    outer loop
      vertex  4.027757e+000  8.500000e-001  0.000000e+000
      vertex  3.857926e+000  4.399924e-001  6.000000e+000
      vertex  3.857926e+000  4.399924e-001  0.000000e+000
    endloop
  endfacet
  facet normal  9.914448e-001 -1.305264e-001  0.000000e+000
    outer loop
      vertex  3.857926e+000  4.399924e-001  0.000000e+000
      vertex  3.857926e+000  4.399924e-001  6.000000e+000
      vertex  3.800000e+000 -8.881784e-015  6.000000e+000
    endloop
  endfacet
  facet normal  9.914448e-001 -1.305264e-001  0.000000e+000
    outer loop
      vertex  3.857926e+000  4.399924e-001  0.000000e+000
      vertex  3.800000e+000 -8.881784e-015  6.000000e+000
      vertex  3.800000e+000 -8.881784e-015  0.000000e+000
    endloop
  endfacet
  facet normal -1.305264e-001  9.914448e-001  0.000000e+000
    outer loop
      vertex -5.500000e+000 -1.700000e+000  0.000000e+000
      vertex -5.060008e+000 -1.642074e+000  6.000000e+000
      vertex -5.060008e+000 -1.642074e+000  0.000000e+000
    endloop
  endfacet
  facet normal -3.826835e-001  9.238794e-001  0.000000e+000
    outer loop
      vertex -5.060008e+000 -1.642074e+000  0.000000e+000
      vertex -5.060008e+000 -1.642074e+000  6.000000e+000
      vertex -4.650000e+000 -1.472243e+000  6.000000e+000
    endloop
  endfacet
  facet normal -3.826835e-001  9.238794e-001  0.000000e+000
    outer loop
      vertex -5.060008e+000 -1.642074e+000  0.000000e+000
      vertex -4.650000e+000 -1.472243e+000  6.000000e+000
      vertex -4.650000e+000 -1.472243e+000  0.000000e+000
    endloop
  endfacet
  facet normal -6.087611e-001  7.933536e-001  0.000000e+000
    outer loop
      vertex -4.650000e+000 -1.472243e+000  0.000000e+000
      vertex -4.650000e+000 -1.472243e+000  6.000000e+000
      vertex -4.297918e+000 -1.202082e+000  6.000000e+000
    endloop
  endfacet
  facet normal -6.087611e-001  7.933536e-001  0.000000e+000
    outer loop
      vertex -4.650000e+000 -1.472243e+000  0.000000e+000
      vertex -4.297918e+000 -1.202082e+000  6.000000e+000
      vertex -4.297918e+000 -1.202082e+000  0.000000e+000
    endloop
  endfacet
  facet normal -7.933534e-001  6.087614e-001  0.000000e+000
    outer loop
      vertex -4.297918e+000 -1.202082e+000  0.000000e+000
      vertex -4.297918e+000 -1.202082e+000  6.000000e+000
      vertex -4.027757e+000 -8.500000e-001  6.000000e+000
    endloop
  endfacet
  facet normal -7.933534e-001  6.087614e-001  0.000000e+000
    outer loop
      vertex -4.297918e+000 -1.202082e+000  0.000000e+000
      vertex -4.027757e+000 -8.500000e-001  6.000000e+000
      vertex -4.027757e+000 -8.500000e-001  0.000000e+000
    endloop
  endfacet
  facet normal -9.238797e-001  3.826831e-001  0.000000e+000
    outer loop
      vertex -4.027757e+000 -8.500000e-001  0.000000e+000
      vertex -4.027757e+000 -8.500000e-001  6.000000e+000
      vertex -3.857926e+000 -4.399924e-001  6.000000e+000
    endloop
  endfacet
  facet normal -9.238797e-001  3.826831e-001  0.000000e+000
    outer loop
      vertex -4.027757e+000 -8.500000e-001  0.000000e+000
      vertex -3.857926e+000 -4.399924e-001  6.000000e+000
      vertex -3.857926e+000 -4.399924e-001  0.000000e+000
    endloop
  endfacet
  facet normal -9.914448e-001  1.305264e-001  0.000000e+000
    outer loop
      vertex -3.857926e+000 -4.399924e-001  0.000000e+000
      vertex -3.857926e+000 -4.399924e-001  6.000000e+000
      vertex -3.800000e+000 -8.881784e-015  6.000000e+000
    endloop
  endfacet
  facet normal -9.914448e-001  1.305264e-001  0.000000e+000
    outer loop
      vertex -3.857926e+000 -4.399924e-001  0.000000e+000
      vertex -3.800000e+000 -8.881784e-015  6.000000e+000
      vertex -3.800000e+000 -8.881784e-015  0.000000e+000
    endloop
  endfacet
  facet normal -1.305264e-001  9.914448e-001  0.000000e+000
    outer loop
      vertex -5.060008e+000 -1.642074e+000  6.000000e+000
      vertex -5.500000e+000 -1.700000e+000  0.000000e+000
      vertex -5.500000e+000 -1.700000e+000  6.000000e+000
    endloop
  endfacet
  facet normal  1.305264e-001  9.914448e-001  0.000000e+000
    outer loop
      vertex -5.500000e+000 -1.700000e+000  6.000000e+000
      vertex -5.500000e+000 -1.700000e+000  0.000000e+000
      vertex -5.939992e+000 -1.642074e+000  0.000000e+000
    endloop
  endfacet
  facet normal  1.305264e-001  9.914448e-001  -0.000000e+000
    outer loop
      vertex -5.500000e+000 -1.700000e+000  6.000000e+000
      vertex -5.939992e+000 -1.642074e+000  0.000000e+000
      vertex -5.939992e+000 -1.642074e+000  6.000000e+000
    endloop
  endfacet
  facet normal  3.826835e-001  9.238794e-001  0.000000e+000
    outer loop
      vertex -5.939992e+000 -1.642074e+000  6.000000e+000
      vertex -5.939992e+000 -1.642074e+000  0.000000e+000
      vertex -6.350000e+000 -1.472243e+000  0.000000e+000
    endloop
  endfacet
  facet normal  3.826835e-001  9.238794e-001  -0.000000e+000
    outer loop
      vertex -5.939992e+000 -1.642074e+000  6.000000e+000
      vertex -6.350000e+000 -1.472243e+000  0.000000e+000
      vertex -6.350000e+000 -1.472243e+000  6.000000e+000
    endloop
  endfacet
  facet normal  6.087611e-001  7.933536e-001  0.000000e+000
    outer loop
      vertex -6.350000e+000 -1.472243e+000  6.000000e+000
      vertex -6.350000e+000 -1.472243e+000  0.000000e+000
      vertex -6.702082e+000 -1.202082e+000  0.000000e+000
    endloop
  endfacet
  facet normal  6.087611e-001  7.933536e-001  -0.000000e+000
    outer loop
      vertex -6.350000e+000 -1.472243e+000  6.000000e+000
      vertex -6.702082e+000 -1.202082e+000  0.000000e+000
      vertex -6.702082e+000 -1.202082e+000  6.000000e+000
    endloop
  endfacet
  facet normal  7.933534e-001  6.087614e-001  0.000000e+000
    outer loop
      vertex -6.702082e+000 -1.202082e+000  6.000000e+000
      vertex -6.702082e+000 -1.202082e+000  0.000000e+000
      vertex -6.972243e+000 -8.500000e-001  0.000000e+000
    endloop
  endfacet
  facet normal  7.933534e-001  6.087614e-001  -0.000000e+000
    outer loop
      vertex -6.702082e+000 -1.202082e+000  6.000000e+000
      vertex -6.972243e+000 -8.500000e-001  0.000000e+000
      vertex -6.972243e+000 -8.500000e-001  6.000000e+000
    endloop
  endfacet
  facet normal  9.238795e-001  3.826836e-001  0.000000e+000
    outer loop
      vertex -6.972243e+000 -8.500000e-001  6.000000e+000
      vertex -6.972243e+000 -8.500000e-001  0.000000e+000
      vertex -7.142074e+000 -4.399924e-001  0.000000e+000
    endloop
  endfacet
  facet normal  9.238795e-001  3.826836e-001  -0.000000e+000
    outer loop
      vertex -6.972243e+000 -8.500000e-001  6.000000e+000
      vertex -7.142074e+000 -4.399924e-001  0.000000e+000
      vertex -7.142074e+000 -4.399924e-001  6.000000e+000
    endloop
  endfacet
  facet normal  9.914450e-001  1.305253e-001  0.000000e+000
    outer loop
      vertex -7.142074e+000 -4.399924e-001  6.000000e+000
      vertex -7.142074e+000 -4.399924e-001  0.000000e+000
      vertex -7.200000e+000 -8.673595e-015  0.000000e+000
    endloop
  endfacet
  facet normal  9.914450e-001  1.305253e-001  -0.000000e+000
    outer loop
      vertex -7.142074e+000 -4.399924e-001  6.000000e+000
      vertex -7.200000e+000 -8.673595e-015  0.000000e+000
      vertex -7.200000e+000 -8.673595e-015  6.000000e+000
    endloop
  endfacet
  facet normal  1.305264e-001 -9.914448e-001  0.000000e+000
    outer loop
      vertex -5.500000e+000  1.700000e+000  0.000000e+000
      vertex -5.939992e+000  1.642074e+000  6.000000e+000
      vertex -5.939992e+000  1.642074e+000  0.000000e+000
    endloop
  endfacet
  facet normal  3.826835e-001 -9.238794e-001  0.000000e+000
    outer loop
      vertex -5.939992e+000  1.642074e+000  0.000000e+000
      vertex -5.939992e+000  1.642074e+000  6.000000e+000
      vertex -6.350000e+000  1.472243e+000  6.000000e+000
    endloop
  endfacet
  facet normal  3.826835e-001 -9.238794e-001  0.000000e+000
    outer loop
      vertex -5.939992e+000  1.642074e+000  0.000000e+000
      vertex -6.350000e+000  1.472243e+000  6.000000e+000
      vertex -6.350000e+000  1.472243e+000  0.000000e+000
    endloop
  endfacet
  facet normal  6.087611e-001 -7.933536e-001  0.000000e+000
    outer loop
      vertex -6.350000e+000  1.472243e+000  0.000000e+000
      vertex -6.350000e+000  1.472243e+000  6.000000e+000
      vertex -6.702082e+000  1.202082e+000  6.000000e+000
    endloop
  endfacet
  facet normal  6.087611e-001 -7.933536e-001  0.000000e+000
    outer loop
      vertex -6.350000e+000  1.472243e+000  0.000000e+000
      vertex -6.702082e+000  1.202082e+000  6.000000e+000
      vertex -6.702082e+000  1.202082e+000  0.000000e+000
    endloop
  endfacet
  facet normal  7.933534e-001 -6.087614e-001  0.000000e+000
    outer loop
      vertex -6.702082e+000  1.202082e+000  0.000000e+000
      vertex -6.702082e+000  1.202082e+000  6.000000e+000
      vertex -6.972243e+000  8.500000e-001  6.000000e+000
    endloop
  endfacet
  facet normal  7.933534e-001 -6.087614e-001  0.000000e+000
    outer loop
      vertex -6.702082e+000  1.202082e+000  0.000000e+000
      vertex -6.972243e+000  8.500000e-001  6.000000e+000
      vertex -6.972243e+000  8.500000e-001  0.000000e+000
    endloop
  endfacet
  facet normal  9.238795e-001 -3.826836e-001  0.000000e+000
    outer loop
      vertex -6.972243e+000  8.500000e-001  0.000000e+000
      vertex -6.972243e+000  8.500000e-001  6.000000e+000
      vertex -7.142074e+000  4.399924e-001  6.000000e+000
    endloop
  endfacet
  facet normal  9.238795e-001 -3.826836e-001  0.000000e+000
    outer loop
      vertex -6.972243e+000  8.500000e-001  0.000000e+000
      vertex -7.142074e+000  4.399924e-001  6.000000e+000
      vertex -7.142074e+000  4.399924e-001  0.000000e+000
    endloop
  endfacet
  facet normal  9.914450e-001 -1.305253e-001  0.000000e+000
    outer loop
      vertex -7.142074e+000  4.399924e-001  0.000000e+000
      vertex -7.142074e+000  4.399924e-001  6.000000e+000
      vertex -7.200000e+000 -8.673595e-015  6.000000e+000
    endloop
  endfacet
  facet normal  9.914450e-001 -1.305253e-001  0.000000e+000
    outer loop
      vertex -7.142074e+000  4.399924e-001  0.000000e+000
      vertex -7.200000e+000 -8.673595e-015  6.000000e+000
      vertex -7.200000e+000 -8.673595e-015  0.000000e+000
    endloop
  endfacet
  facet normal  1.305264e-001 -9.914448e-001  0.000000e+000
    outer loop
      vertex -5.939992e+000  1.642074e+000  6.000000e+000
      vertex -5.500000e+000  1.700000e+000  0.000000e+000
      vertex -5.500000e+000  1.700000e+000  6.000000e+000
    endloop
  endfacet
  facet normal -1.305264e-001 -9.914448e-001  -0.000000e+000
    outer loop
      vertex -5.500000e+000  1.700000e+000  6.000000e+000
      vertex -5.500000e+000  1.700000e+000  0.000000e+000
      vertex -5.060008e+000  1.642074e+000  0.000000e+000
    endloop
  endfacet
  facet normal -1.305264e-001 -9.914448e-001  0.000000e+000
    outer loop
      vertex -5.500000e+000  1.700000e+000  6.000000e+000
      vertex -5.060008e+000  1.642074e+000  0.000000e+000
      vertex -5.060008e+000  1.642074e+000  6.000000e+000
    endloop
  endfacet
  facet normal -3.826835e-001 -9.238794e-001  -0.000000e+000
    outer loop
      vertex -5.060008e+000  1.642074e+000  6.000000e+000
      vertex -5.060008e+000  1.642074e+000  0.000000e+000
      vertex -4.650000e+000  1.472243e+000  0.000000e+000
    endloop
  endfacet
  facet normal -3.826835e-001 -9.238794e-001  0.000000e+000
    outer loop
      vertex -5.060008e+000  1.642074e+000  6.000000e+000
      vertex -4.650000e+000  1.472243e+000  0.000000e+000
      vertex -4.650000e+000  1.472243e+000  6.000000e+000
    endloop
  endfacet
  facet normal -6.087611e-001 -7.933536e-001  -0.000000e+000
    outer loop
      vertex -4.650000e+000  1.472243e+000  6.000000e+000
      vertex -4.650000e+000  1.472243e+000  0.000000e+000
      vertex -4.297918e+000  1.202082e+000  0.000000e+000
    endloop
  endfacet
  facet normal -6.087611e-001 -7.933536e-001  0.000000e+000
    outer loop
      vertex -4.650000e+000  1.472243e+000  6.000000e+000
      vertex -4.297918e+000  1.202082e+000  0.000000e+000
      vertex -4.297918e+000  1.202082e+000  6.000000e+000
    endloop
  endfacet
  facet normal -7.933534e-001 -6.087614e-001  -0.000000e+000
    outer loop
      vertex -4.297918e+000  1.202082e+000  6.000000e+000
      vertex -4.297918e+000  1.202082e+000  0.000000e+000
      vertex -4.027757e+000  8.500000e-001  0.000000e+000
    endloop
  endfacet
  facet normal -7.933534e-001 -6.087614e-001  0.000000e+000
    outer loop
      vertex -4.297918e+000  1.202082e+000  6.000000e+000
      vertex -4.027757e+000  8.500000e-001  0.000000e+000
      vertex -4.027757e+000  8.500000e-001  6.000000e+000
    endloop
  endfacet
  facet normal -9.238797e-001 -3.826831e-001  -0.000000e+000
    outer loop
      vertex -4.027757e+000  8.500000e-001  6.000000e+000
      vertex -4.027757e+000  8.500000e-001  0.000000e+000
      vertex -3.857926e+000  4.399924e-001  0.000000e+000
    endloop
  endfacet
  facet normal -9.238797e-001 -3.826831e-001  0.000000e+000
    outer loop
      vertex -4.027757e+000  8.500000e-001  6.000000e+000
      vertex -3.857926e+000  4.399924e-001  0.000000e+000
      vertex -3.857926e+000  4.399924e-001  6.000000e+000
    endloop
  endfacet
  facet normal -9.914448e-001 -1.305264e-001  -0.000000e+000
    outer loop
      vertex -3.857926e+000  4.399924e-001  6.000000e+000
      vertex -3.857926e+000  4.399924e-001  0.000000e+000
      vertex -3.800000e+000 -8.881784e-015  0.000000e+000
    endloop
  endfacet
  facet normal -9.914448e-001 -1.305264e-001  0.000000e+000
    outer loop
      vertex -3.857926e+000  4.399924e-001  6.000000e+000
      vertex -3.800000e+000 -8.881784e-015  0.000000e+000
      vertex -3.800000e+000 -8.881784e-015  6.000000e+000
    endloop
  endfacet
  facet normal  0.000000e+000 -1.000000e+000  0.000000e+000
    outer loop
      vertex  5.500000e+000 -3.000000e+000  6.000000e+000
      vertex -5.500000e+000 -3.000000e+000  6.000000e+000
      vertex  5.500000e+000 -3.000000e+000  0.000000e+000
    endloop
  endfacet
  facet normal  0.000000e+000 -1.000000e+000  0.000000e+000
    outer loop
      vertex  5.500000e+000 -3.000000e+000  0.000000e+000
      vertex -5.500000e+000 -3.000000e+000  6.000000e+000
      vertex -5.500000e+000 -3.000000e+000  0.000000e+000
    endloop
  endfacet
  facet normal -9.801710e-002 -9.951848e-001  -0.000000e+000
    outer loop
      vertex -5.500000e+000 -3.000000e+000  0.000000e+000
      vertex -5.500000e+000 -3.000000e+000  6.000000e+000
      vertex -6.085271e+000 -2.942356e+000  0.000000e+000
    endloop
  endfacet
  facet normal -9.801710e-002 -9.951848e-001  0.000000e+000
    outer loop
      vertex -6.085271e+000 -2.942356e+000  0.000000e+000
      vertex -5.500000e+000 -3.000000e+000  6.000000e+000
      vertex -6.085271e+000 -2.942356e+000  6.000000e+000
    endloop
  endfacet
  facet normal -2.902846e-001 -9.569404e-001  -0.000000e+000
    outer loop
      vertex -6.085271e+000 -2.942356e+000  0.000000e+000
      vertex -6.085271e+000 -2.942356e+000  6.000000e+000
      vertex -6.648050e+000 -2.771639e+000  0.000000e+000
    endloop
  endfacet
  facet normal -2.902846e-001 -9.569404e-001  0.000000e+000
    outer loop
      vertex -6.648050e+000 -2.771639e+000  0.000000e+000
      vertex -6.085271e+000 -2.942356e+000  6.000000e+000
      vertex -6.648050e+000 -2.771639e+000  6.000000e+000
    endloop
  endfacet
  facet normal -4.713967e-001 -8.819213e-001  -0.000000e+000
    outer loop
      vertex -6.648050e+000 -2.771639e+000  0.000000e+000
      vertex -6.648050e+000 -2.771639e+000  6.000000e+000
      vertex -7.166711e+000 -2.494409e+000  0.000000e+000
    endloop
  endfacet
  facet normal -4.713967e-001 -8.819213e-001  0.000000e+000
    outer loop
      vertex -7.166711e+000 -2.494409e+000  0.000000e+000
      vertex -6.648050e+000 -2.771639e+000  6.000000e+000
      vertex -7.166711e+000 -2.494409e+000  6.000000e+000
    endloop
  endfacet
  facet normal -6.343936e-001 -7.730103e-001  -0.000000e+000
    outer loop
      vertex -7.166711e+000 -2.494409e+000  0.000000e+000
      vertex -7.166711e+000 -2.494409e+000  6.000000e+000
      vertex -7.621320e+000 -2.121320e+000  0.000000e+000
    endloop
  endfacet
  facet normal -6.343936e-001 -7.730103e-001  0.000000e+000
    outer loop
      vertex -7.621320e+000 -2.121320e+000  0.000000e+000
      vertex -7.166711e+000 -2.494409e+000  6.000000e+000
      vertex -7.621320e+000 -2.121320e+000  6.000000e+000
    endloop
  endfacet
  facet normal -7.730104e-001 -6.343932e-001  -0.000000e+000
    outer loop
      vertex -7.621320e+000 -2.121320e+000  0.000000e+000
      vertex -7.621320e+000 -2.121320e+000  6.000000e+000
      vertex -7.994409e+000 -1.666711e+000  0.000000e+000
    endloop
  endfacet
  facet normal -7.730104e-001 -6.343932e-001  0.000000e+000
    outer loop
      vertex -7.994409e+000 -1.666711e+000  0.000000e+000
      vertex -7.621320e+000 -2.121320e+000  6.000000e+000
      vertex -7.994409e+000 -1.666711e+000  6.000000e+000
    endloop
  endfacet
  facet normal -8.819209e-001 -4.713974e-001  -0.000000e+000
    outer loop
      vertex -7.994409e+000 -1.666711e+000  0.000000e+000
      vertex -7.994409e+000 -1.666711e+000  6.000000e+000
      vertex -8.271639e+000 -1.148050e+000  0.000000e+000
    endloop
  endfacet
  facet normal -8.819209e-001 -4.713974e-001  0.000000e+000
    outer loop
      vertex -8.271639e+000 -1.148050e+000  0.000000e+000
      vertex -7.994409e+000 -1.666711e+000  6.000000e+000
      vertex -8.271639e+000 -1.148050e+000  6.000000e+000
    endloop
  endfacet
  facet normal -9.569404e-001 -2.902847e-001  -0.000000e+000
    outer loop
      vertex -8.271639e+000 -1.148050e+000  0.000000e+000
      vertex -8.271639e+000 -1.148050e+000  6.000000e+000
      vertex -8.442356e+000 -5.852709e-001  0.000000e+000
    endloop
  endfacet
  facet normal -9.569404e-001 -2.902847e-001  0.000000e+000
    outer loop
      vertex -8.442356e+000 -5.852709e-001  0.000000e+000
      vertex -8.271639e+000 -1.148050e+000  6.000000e+000
      vertex -8.442356e+000 -5.852709e-001  6.000000e+000
    endloop
  endfacet
  facet normal -9.951848e-001 -9.801669e-002  -0.000000e+000
    outer loop
      vertex -8.442356e+000 -5.852709e-001  0.000000e+000
      vertex -8.442356e+000 -5.852709e-001  6.000000e+000
      vertex -8.500000e+000 -1.029075e-014  0.000000e+000
    endloop
  endfacet
  facet normal -9.951848e-001 -9.801669e-002  0.000000e+000
    outer loop
      vertex -8.500000e+000 -1.029075e-014  0.000000e+000
      vertex -8.442356e+000 -5.852709e-001  6.000000e+000
      vertex -8.500000e+000 -1.029075e-014  6.000000e+000
    endloop
  endfacet
  facet normal  0.000000e+000  1.000000e+000  0.000000e+000
    outer loop
      vertex -5.500000e+000  3.000000e+000  6.000000e+000
      vertex  5.500000e+000  3.000000e+000  6.000000e+000
      vertex -5.500000e+000  3.000000e+000  0.000000e+000
    endloop
  endfacet
  facet normal  0.000000e+000  1.000000e+000  0.000000e+000
    outer loop
      vertex -5.500000e+000  3.000000e+000  0.000000e+000
      vertex  5.500000e+000  3.000000e+000  6.000000e+000
      vertex  5.500000e+000  3.000000e+000  0.000000e+000
    endloop
  endfacet
  facet normal -9.951848e-001  9.801669e-002  0.000000e+000
    outer loop
      vertex -8.500000e+000 -1.029075e-014  0.000000e+000
      vertex -8.500000e+000 -1.029075e-014  6.000000e+000
      vertex -8.442356e+000  5.852709e-001  0.000000e+000
    endloop
  endfacet
  facet normal -9.951848e-001  9.801669e-002  0.000000e+000
    outer loop
      vertex -8.442356e+000  5.852709e-001  0.000000e+000
      vertex -8.500000e+000 -1.029075e-014  6.000000e+000
      vertex -8.442356e+000  5.852709e-001  6.000000e+000
    endloop
  endfacet
  facet normal -9.569404e-001  2.902847e-001  0.000000e+000
    outer loop
      vertex -8.442356e+000  5.852709e-001  0.000000e+000
      vertex -8.442356e+000  5.852709e-001  6.000000e+000
      vertex -8.271639e+000  1.148050e+000  0.000000e+000
    endloop
  endfacet
  facet normal -9.569404e-001  2.902847e-001  0.000000e+000
    outer loop
      vertex -8.271639e+000  1.148050e+000  0.000000e+000
      vertex -8.442356e+000  5.852709e-001  6.000000e+000
      vertex -8.271639e+000  1.148050e+000  6.000000e+000
    endloop
  endfacet
  facet normal -8.819209e-001  4.713974e-001  0.000000e+000
    outer loop
      vertex -8.271639e+000  1.148050e+000  0.000000e+000
      vertex -8.271639e+000  1.148050e+000  6.000000e+000
      vertex -7.994409e+000  1.666711e+000  0.000000e+000
    endloop
  endfacet
  facet normal -8.819209e-001  4.713974e-001  0.000000e+000
    outer loop
      vertex -7.994409e+000  1.666711e+000  0.000000e+000
      vertex -8.271639e+000  1.148050e+000  6.000000e+000
      vertex -7.994409e+000  1.666711e+000  6.000000e+000
    endloop
  endfacet
  facet normal -7.730104e-001  6.343932e-001  0.000000e+000
    outer loop
      vertex -7.994409e+000  1.666711e+000  0.000000e+000
      vertex -7.994409e+000  1.666711e+000  6.000000e+000
      vertex -7.621320e+000  2.121320e+000  0.000000e+000
    endloop
  endfacet
  facet normal -7.730104e-001  6.343932e-001  0.000000e+000
    outer loop
      vertex -7.621320e+000  2.121320e+000  0.000000e+000
      vertex -7.994409e+000  1.666711e+000  6.000000e+000
      vertex -7.621320e+000  2.121320e+000  6.000000e+000
    endloop
  endfacet
  facet normal -6.343936e-001  7.730103e-001  0.000000e+000
    outer loop
      vertex -7.621320e+000  2.121320e+000  0.000000e+000
      vertex -7.621320e+000  2.121320e+000  6.000000e+000
      vertex -7.166711e+000  2.494409e+000  0.000000e+000
    endloop
  endfacet
  facet normal -6.343936e-001  7.730103e-001  0.000000e+000
    outer loop
      vertex -7.166711e+000  2.494409e+000  0.000000e+000
      vertex -7.621320e+000  2.121320e+000  6.000000e+000
      vertex -7.166711e+000  2.494409e+000  6.000000e+000
    endloop
  endfacet
  facet normal -4.713967e-001  8.819213e-001  0.000000e+000
    outer loop
      vertex -7.166711e+000  2.494409e+000  0.000000e+000
      vertex -7.166711e+000  2.494409e+000  6.000000e+000
      vertex -6.648050e+000  2.771639e+000  0.000000e+000
    endloop
  endfacet
  facet normal -4.713967e-001  8.819213e-001  0.000000e+000
    outer loop
      vertex -6.648050e+000  2.771639e+000  0.000000e+000
      vertex -7.166711e+000  2.494409e+000  6.000000e+000
      vertex -6.648050e+000  2.771639e+000  6.000000e+000
    endloop
  endfacet
  facet normal -2.902846e-001  9.569404e-001  0.000000e+000
    outer loop
      vertex -6.648050e+000  2.771639e+000  0.000000e+000
      vertex -6.648050e+000  2.771639e+000  6.000000e+000
      vertex -6.085271e+000  2.942356e+000  0.000000e+000
    endloop
  endfacet
  facet normal -2.902846e-001  9.569404e-001  0.000000e+000
    outer loop
      vertex -6.085271e+000  2.942356e+000  0.000000e+000
      vertex -6.648050e+000  2.771639e+000  6.000000e+000
      vertex -6.085271e+000  2.942356e+000  6.000000e+000
    endloop
  endfacet
  facet normal -9.801710e-002  9.951848e-001  0.000000e+000
    outer loop
      vertex -6.085271e+000  2.942356e+000  0.000000e+000
      vertex -6.085271e+000  2.942356e+000  6.000000e+000
      vertex -5.500000e+000  3.000000e+000  0.000000e+000
    endloop
  endfacet
  facet normal -9.801710e-002  9.951848e-001  0.000000e+000
    outer loop
      vertex -5.500000e+000  3.000000e+000  0.000000e+000
      vertex -6.085271e+000  2.942356e+000  6.000000e+000
      vertex -5.500000e+000  3.000000e+000  6.000000e+000
    endloop
  endfacet
  facet normal  9.801710e-002  9.951848e-001  0.000000e+000
    outer loop
      vertex  5.500000e+000  3.000000e+000  0.000000e+000
      vertex  5.500000e+000  3.000000e+000  6.000000e+000
      vertex  6.085271e+000  2.942356e+000  0.000000e+000
    endloop
  endfacet
  facet normal  9.801710e-002  9.951848e-001  -0.000000e+000
    outer loop
      vertex  6.085271e+000  2.942356e+000  0.000000e+000
      vertex  5.500000e+000  3.000000e+000  6.000000e+000
      vertex  6.085271e+000  2.942356e+000  6.000000e+000
    endloop
  endfacet
  facet normal  2.902846e-001  9.569404e-001  0.000000e+000
    outer loop
      vertex  6.085271e+000  2.942356e+000  0.000000e+000
      vertex  6.085271e+000  2.942356e+000  6.000000e+000
      vertex  6.648050e+000  2.771639e+000  0.000000e+000
    endloop
  endfacet
  facet normal  2.902846e-001  9.569404e-001  -0.000000e+000
    outer loop
      vertex  6.648050e+000  2.771639e+000  0.000000e+000
      vertex  6.085271e+000  2.942356e+000  6.000000e+000
      vertex  6.648050e+000  2.771639e+000  6.000000e+000
    endloop
  endfacet
  facet normal  4.713967e-001  8.819213e-001  0.000000e+000
    outer loop
      vertex  6.648050e+000  2.771639e+000  0.000000e+000
      vertex  6.648050e+000  2.771639e+000  6.000000e+000
      vertex  7.166711e+000  2.494409e+000  0.000000e+000
    endloop
  endfacet
  facet normal  4.713967e-001  8.819213e-001  -0.000000e+000
    outer loop
      vertex  7.166711e+000  2.494409e+000  0.000000e+000
      vertex  6.648050e+000  2.771639e+000  6.000000e+000
      vertex  7.166711e+000  2.494409e+000  6.000000e+000
    endloop
  endfacet
  facet normal  6.343936e-001  7.730103e-001  0.000000e+000
    outer loop
      vertex  7.166711e+000  2.494409e+000  0.000000e+000
      vertex  7.166711e+000  2.494409e+000  6.000000e+000
      vertex  7.621320e+000  2.121320e+000  0.000000e+000
    endloop
  endfacet
  facet normal  6.343936e-001  7.730103e-001  -0.000000e+000
    outer loop
      vertex  7.621320e+000  2.121320e+000  0.000000e+000
      vertex  7.166711e+000  2.494409e+000  6.000000e+000
      vertex  7.621320e+000  2.121320e+000  6.000000e+000
    endloop
  endfacet
  facet normal  7.730104e-001  6.343932e-001  0.000000e+000
    outer loop
      vertex  7.621320e+000  2.121320e+000  0.000000e+000
      vertex  7.621320e+000  2.121320e+000  6.000000e+000
      vertex  7.994409e+000  1.666711e+000  0.000000e+000
    endloop
  endfacet
  facet normal  7.730104e-001  6.343932e-001  -0.000000e+000
    outer loop
      vertex  7.994409e+000  1.666711e+000  0.000000e+000
      vertex  7.621320e+000  2.121320e+000  6.000000e+000
      vertex  7.994409e+000  1.666711e+000  6.000000e+000
    endloop
  endfacet
  facet normal  8.819209e-001  4.713974e-001  0.000000e+000
    outer loop
      vertex  7.994409e+000  1.666711e+000  0.000000e+000
      vertex  7.994409e+000  1.666711e+000  6.000000e+000
      vertex  8.271639e+000  1.148050e+000  0.000000e+000
    endloop
  endfacet
  facet normal  8.819209e-001  4.713974e-001  -0.000000e+000
    outer loop
      vertex  8.271639e+000  1.148050e+000  0.000000e+000
      vertex  7.994409e+000  1.666711e+000  6.000000e+000
      vertex  8.271639e+000  1.148050e+000  6.000000e+000
    endloop
  endfacet
  facet normal  9.569404e-001  2.902847e-001  0.000000e+000
    outer loop
      vertex  8.271639e+000  1.148050e+000  0.000000e+000
      vertex  8.271639e+000  1.148050e+000  6.000000e+000
      vertex  8.442356e+000  5.852709e-001  0.000000e+000
    endloop
  endfacet
  facet normal  9.569404e-001  2.902847e-001  -0.000000e+000
    outer loop
      vertex  8.442356e+000  5.852709e-001  0.000000e+000
      vertex  8.271639e+000  1.148050e+000  6.000000e+000
      vertex  8.442356e+000  5.852709e-001  6.000000e+000
    endloop
  endfacet
  facet normal  9.951848e-001  9.801669e-002  0.000000e+000
    outer loop
      vertex  8.442356e+000  5.852709e-001  0.000000e+000
      vertex  8.442356e+000  5.852709e-001  6.000000e+000
      vertex  8.500000e+000 -8.881784e-015  0.000000e+000
    endloop
  endfacet
  facet normal  9.951848e-001  9.801669e-002  -0.000000e+000
    outer loop
      vertex  8.500000e+000 -8.881784e-015  0.000000e+000
      vertex  8.442356e+000  5.852709e-001  6.000000e+000
      vertex  8.500000e+000 -8.881784e-015  6.000000e+000
    endloop
  endfacet
  facet normal  9.951848e-001 -9.801669e-002  0.000000e+000
    outer loop
      vertex  8.500000e+000 -8.881784e-015  0.000000e+000
      vertex  8.500000e+000 -8.881784e-015  6.000000e+000
      vertex  8.442356e+000 -5.852709e-001  0.000000e+000
    endloop
  endfacet
  facet normal  9.951848e-001 -9.801669e-002  0.000000e+000
    outer loop
      vertex  8.442356e+000 -5.852709e-001  0.000000e+000
      vertex  8.500000e+000 -8.881784e-015  6.000000e+000
      vertex  8.442356e+000 -5.852709e-001  6.000000e+000
    endloop
  endfacet
  facet normal  9.569404e-001 -2.902847e-001  0.000000e+000
    outer loop
      vertex  8.442356e+000 -5.852709e-001  0.000000e+000
      vertex  8.442356e+000 -5.852709e-001  6.000000e+000
      vertex  8.271639e+000 -1.148050e+000  0.000000e+000
    endloop
  endfacet
  facet normal  9.569404e-001 -2.902847e-001  0.000000e+000
    outer loop
      vertex  8.271639e+000 -1.148050e+000  0.000000e+000
      vertex  8.442356e+000 -5.852709e-001  6.000000e+000
      vertex  8.271639e+000 -1.148050e+000  6.000000e+000
    endloop
  endfacet
  facet normal  8.819209e-001 -4.713974e-001  0.000000e+000
    outer loop
      vertex  8.271639e+000 -1.148050e+000  0.000000e+000
      vertex  8.271639e+000 -1.148050e+000  6.000000e+000
      vertex  7.994409e+000 -1.666711e+000  0.000000e+000
    endloop
  endfacet
  facet normal  8.819209e-001 -4.713974e-001  0.000000e+000
    outer loop
      vertex  7.994409e+000 -1.666711e+000  0.000000e+000
      vertex  8.271639e+000 -1.148050e+000  6.000000e+000
      vertex  7.994409e+000 -1.666711e+000  6.000000e+000
    endloop
  endfacet
  facet normal  7.730104e-001 -6.343932e-001  0.000000e+000
    outer loop
      vertex  7.994409e+000 -1.666711e+000  0.000000e+000
      vertex  7.994409e+000 -1.666711e+000  6.000000e+000
      vertex  7.621320e+000 -2.121320e+000  0.000000e+000
    endloop
  endfacet
  facet normal  7.730104e-001 -6.343932e-001  0.000000e+000
    outer loop
      vertex  7.621320e+000 -2.121320e+000  0.000000e+000
      vertex  7.994409e+000 -1.666711e+000  6.000000e+000
      vertex  7.621320e+000 -2.121320e+000  6.000000e+000
    endloop
  endfacet
  facet normal  6.343936e-001 -7.730103e-001  0.000000e+000
    outer loop
      vertex  7.621320e+000 -2.121320e+000  0.000000e+000
      vertex  7.621320e+000 -2.121320e+000  6.000000e+000
      vertex  7.166711e+000 -2.494409e+000  0.000000e+000
    endloop
  endfacet
  facet normal  6.343936e-001 -7.730103e-001  0.000000e+000
    outer loop
      vertex  7.166711e+000 -2.494409e+000  0.000000e+000
      vertex  7.621320e+000 -2.121320e+000  6.000000e+000
      vertex  7.166711e+000 -2.494409e+000  6.000000e+000
    endloop
  endfacet
  facet normal  4.713967e-001 -8.819213e-001  0.000000e+000
    outer loop
      vertex  7.166711e+000 -2.494409e+000  0.000000e+000
      vertex  7.166711e+000 -2.494409e+000  6.000000e+000
      vertex  6.648050e+000 -2.771639e+000  0.000000e+000
    endloop
  endfacet
  facet normal  4.713967e-001 -8.819213e-001  0.000000e+000
    outer loop
      vertex  6.648050e+000 -2.771639e+000  0.000000e+000
      vertex  7.166711e+000 -2.494409e+000  6.000000e+000
      vertex  6.648050e+000 -2.771639e+000  6.000000e+000
    endloop
  endfacet
  facet normal  2.902846e-001 -9.569404e-001  0.000000e+000
    outer loop
      vertex  6.648050e+000 -2.771639e+000  0.000000e+000
      vertex  6.648050e+000 -2.771639e+000  6.000000e+000
      vertex  6.085271e+000 -2.942356e+000  0.000000e+000
    endloop
  endfacet
  facet normal  2.902846e-001 -9.569404e-001  0.000000e+000
    outer loop
      vertex  6.085271e+000 -2.942356e+000  0.000000e+000
      vertex  6.648050e+000 -2.771639e+000  6.000000e+000
      vertex  6.085271e+000 -2.942356e+000  6.000000e+000
    endloop
  endfacet
  facet normal  9.801710e-002 -9.951848e-001  0.000000e+000
    outer loop
      vertex  6.085271e+000 -2.942356e+000  0.000000e+000
      vertex  6.085271e+000 -2.942356e+000  6.000000e+000
      vertex  5.500000e+000 -3.000000e+000  0.000000e+000
    endloop
  endfacet
  facet normal  9.801710e-002 -9.951848e-001  0.000000e+000
    outer loop
      vertex  5.500000e+000 -3.000000e+000  0.000000e+000
      vertex  6.085271e+000 -2.942356e+000  6.000000e+000
      vertex  5.500000e+000 -3.000000e+000  6.000000e+000
    endloop
  endfacet
endsolid CATIA STL
